<?xml version="1.0" encoding="utf-8"?>
<!-- Generator: Adobe Illustrator 16.0.3, SVG Export Plug-In . SVG Version: 6.00 Build 0)  -->
<!DOCTYPE svg PUBLIC "-//W3C//DTD SVG 1.1 Tiny//EN" "http://www.w3.org/Graphics/SVG/1.1/DTD/svg11-tiny.dtd">
<svg version="1.1" baseProfile="tiny" id="Layer_1" xmlns="http://www.w3.org/2000/svg" xmlns:xlink="http://www.w3.org/1999/xlink"
	 x="0px" y="0px" width="10px" height="10px" viewBox="0 0 10 10" xml:space="preserve">
<path fill-rule="evenodd" fill="#498BB6" d="M6.6,0.63c-1.649,1.29-3.3,2.62-4.91,4C1.6,4.71,1.5,4.9,1.5,4.98
	c0,0.31,0.39,0.55,0.78,0.9c1.65,1.341,3.35,2.71,5,4C7.43,9.96,7.63,10,7.721,10C8.26,10,8.5,9.689,8.5,9.33
	c0-0.08,0-0.27-0.1-0.35C6.85,7.65,5.15,6.35,3.49,5.02c1.61-1.33,3.31-2.67,4.91-4C8.5,0.9,8.5,0.75,8.5,0.63
	C8.5,0.27,8.26,0,7.721,0C7.279,0,7.279,0.08,6.6,0.63z"/>
</svg>
