<?xml version="1.0" encoding="utf-8"?>
<!-- Generator: Adobe Illustrator 16.0.3, SVG Export Plug-In . SVG Version: 6.00 Build 0)  -->
<!DOCTYPE svg PUBLIC "-//W3C//DTD SVG 1.1 Tiny//EN" "http://www.w3.org/Graphics/SVG/1.1/DTD/svg11-tiny.dtd">
<svg version="1.1" baseProfile="tiny" id="Layer_1" xmlns="http://www.w3.org/2000/svg" xmlns:xlink="http://www.w3.org/1999/xlink"
	 x="0px" y="0px" width="13px" height="13px" viewBox="0 0 13 13" xml:space="preserve">
<g>
	<path fill-rule="evenodd" fill="#FFFFFF" d="M5.1,1.25c-1.65,1.56-3.3,3.16-4.91,4.8C0.1,6.15,0,6.38,0,6.48
		c0,0.37,0.39,0.661,0.78,1.081c1.65,1.6,3.35,3.25,5,4.799C5.93,12.45,6.13,12.5,6.22,12.5C6.76,12.5,7,12.12,7,11.7
		c0-0.091,0-0.33-0.1-0.421C5.35,9.68,3.65,8.12,1.99,6.52c1.61-1.6,3.31-3.2,4.91-4.8C7,1.58,7,1.39,7,1.25
		C7,0.83,6.76,0.5,6.22,0.5C5.78,0.5,5.78,0.59,5.1,1.25z"/>
	<path fill-rule="evenodd" fill="#FFFFFF" d="M11.1,1.25C9.45,2.81,7.8,4.41,6.19,6.05C6.1,6.15,6,6.38,6,6.48
		c0,0.37,0.39,0.661,0.78,1.081c1.65,1.6,3.35,3.25,5,4.799c0.15,0.091,0.351,0.141,0.441,0.141C12.76,12.5,13,12.12,13,11.7
		c0-0.091,0-0.33-0.1-0.421C11.35,9.68,9.65,8.12,7.99,6.52c1.609-1.6,3.31-3.2,4.91-4.8C13,1.58,13,1.39,13,1.25
		c0-0.42-0.24-0.75-0.779-0.75C11.779,0.5,11.779,0.59,11.1,1.25z"/>
</g>
</svg>
