<svg xmlns="http://www.w3.org/2000/svg" width="93" height="93" viewBox="0 0 93 93">
  <defs>
    <style>
      .cls-1 {
        fill: #4bb7f6;
        fill-rule: evenodd;
      }
    </style>
  </defs>
  <path id="Forma_1" data-name="Forma 1" class="cls-1" d="M61.478,82.774a10.188,10.188,0,1,1-20.376,0,2.286,2.286,0,0,1,2.282-2.291H59.2A2.286,2.286,0,0,1,61.478,82.774Zm30.479-7.126a2.283,2.283,0,0,1-2.236,1.846H12.858a2.292,2.292,0,0,1-.864-4.411,33.891,33.891,0,0,0,9.92-6.948c2.458-2.511,4.163-6.942,5.137-13.407-0.258.007-.514,0.02-0.774,0.02A26.374,26.374,0,0,1,26.277,0,26.122,26.122,0,0,1,44.07,6.988a8.037,8.037,0,0,1,15.268,3.55q0,0.395-.038.783c6.512,2.259,15.247,8.474,15.247,25.541,0,15.5,2,25.071,6.118,29.273a33.9,33.9,0,0,0,9.923,6.95A2.294,2.294,0,0,1,91.957,75.649ZM27.59,48.123q0.441-5,.441-11.26c0-16.229,7.9-22.642,14.271-25.175A21.745,21.745,0,1,0,26.277,48.166C26.718,48.166,27.156,48.149,27.59,48.123Zm0.969-21.749V8.228a2.282,2.282,0,1,0-4.565,0V24.083H12.466a2.291,2.291,0,0,0,0,4.582H26.277A2.286,2.286,0,0,0,28.559,26.374Z"/>
</svg>
