<svg xmlns="http://www.w3.org/2000/svg" width="23" height="23" viewBox="0 0 23 23">
  <metadata><?xpacket begin="﻿" id="W5M0MpCehiHzreSzNTczkc9d"?>
<x:xmpmeta xmlns:x="adobe:ns:meta/" x:xmptk="Adobe XMP Core 5.6-c138 79.159824, 2016/09/14-01:09:01        ">
   <rdf:RDF xmlns:rdf="http://www.w3.org/1999/02/22-rdf-syntax-ns#">
      <rdf:Description rdf:about=""/>
   </rdf:RDF>
</x:xmpmeta>
                                                                                                    
                                                                                                    
                                                                                                    
                                                                                                    
                                                                                                    
                                                                                                    
                                                                                                    
                                                                                                    
                                                                                                    
                                                                                                    
                                                                                                    
                                                                                                    
                                                                                                    
                                                                                                    
                                                                                                    
                                                                                                    
                                                                                                    
                                                                                                    
                                                                                                    
                                                                                                    
                           
<?xpacket end="w"?></metadata>
<defs>
    <style>
      .cls-1 {
        fill: #e1636f;
        fill-rule: evenodd;
      }
    </style>
  </defs>
  <path id="Forma_1" data-name="Forma 1" class="cls-1" d="M2112.4,875.753a0.835,0.835,0,0,0-.83-0.828,0.763,0.763,0,0,0-.81.65v2.734a0.281,0.281,0,0,1-.24.279,0.244,0.244,0,0,1-.25-0.241v-4.663a0.826,0.826,0,0,0-.82-0.828,0.776,0.776,0,0,0-.82.693v4.7a0.245,0.245,0,1,1-.49,0v-6.261a0.825,0.825,0,0,0-.83-0.828,0.836,0.836,0,0,0-.83.816v6.237a0.231,0.231,0,0,1-.07.175,0.251,0.251,0,0,1-.17.073,0.248,0.248,0,0,1-.25-0.248v-4.56a0.771,0.771,0,0,0-.82-0.7,0.827,0.827,0,0,0-.82.828v6.839a0.246,0.246,0,0,1-.26.229,0.561,0.561,0,0,1-.37-0.2l-0.81-.806a0.958,0.958,0,0,0-.68-0.3,0.85,0.85,0,0,0-.61.258,1.06,1.06,0,0,0-.03,1.384V881.2a10.294,10.294,0,0,0,1.72,1.989,7.259,7.259,0,0,0,4.79,1.98c3.74,0,4.3-2.42,4.3-3.862v-5.552Zm3.23-5.385A11.5,11.5,0,1,0,2119,878.5,11.42,11.42,0,0,0,2115.63,870.368Zm-8.13,18.257a10.126,10.126,0,1,1,10.12-10.125A10.143,10.143,0,0,1,2107.5,888.625Z" transform="translate(-2096 -867)"/>
</svg>
