<svg 
 xmlns="http://www.w3.org/2000/svg"
 xmlns:xlink="http://www.w3.org/1999/xlink"
 width="14px" height="14px">
<path fill-rule="evenodd"  fill="rgb(25, 153, 228)"
 d="M7.699,3.500 L6.300,3.500 L6.300,6.300 L3.499,6.300 L3.499,7.700 L6.300,7.700 L6.300,10.500 L7.699,10.500 L7.699,7.700 L10.499,7.700 L10.499,6.300 L7.699,6.300 L7.699,3.500 ZM6.998,-0.000 C3.149,-0.000 -0.002,3.150 -0.002,7.000 C-0.002,10.850 3.149,14.000 6.998,14.000 C10.850,14.000 13.999,10.850 13.999,7.000 C13.999,3.150 10.850,-0.000 6.998,-0.000 ZM6.998,12.600 C3.919,12.600 1.399,10.080 1.399,7.000 C1.399,3.920 3.919,1.400 6.998,1.400 C10.079,1.400 12.599,3.920 12.599,7.000 C12.599,10.080 10.079,12.600 6.998,12.600 Z"/>
</svg>