<?xml version="1.0" encoding="utf-8"?>
<!-- Generator: Adobe Illustrator 16.0.3, SVG Export Plug-In . SVG Version: 6.00 Build 0)  -->
<!DOCTYPE svg PUBLIC "-//W3C//DTD SVG 1.1//EN" "http://www.w3.org/Graphics/SVG/1.1/DTD/svg11.dtd">
<svg version="1.1" id="Layer_1" xmlns="http://www.w3.org/2000/svg" xmlns:xlink="http://www.w3.org/1999/xlink" x="0px" y="0px"
	 width="23px" height="23px" viewBox="0 0 23 23" enable-background="new 0 0 23 23" xml:space="preserve">
<path fill-rule="evenodd" clip-rule="evenodd" fill="#FFFFFF" d="M22.5,6.48c0,0.98-0.18,1.86-0.811,2.75
	c-1.609,2.14-4.489,4.629-6.549,6.76c-1.261,1.24-2.521,2.49-3.771,3.64c-0.09,0.091-0.18,0.181-0.45,0.181
	c-0.45,0-0.63-0.531-0.63-0.711c0-0.709,7.989-8.09,10.05-10.399c0.811-0.89,0.721-1.33,0.721-2.13c0-2.23-1.881-3.74-3.771-3.74
	c-0.72,0-2.149,0.63-2.78,1.34c-3.95,4.09-8.17,7.91-12.12,12c-0.63,0.53-0.45,0.971-0.45,1.51c0,1.51,1.07,2.4,2.42,2.4
	c0.72,0,0.99,0,1.89-0.801c2.69-2.67,5.47-5.42,8.08-8.089c0.18-0.18,0.27-0.45,0.27-0.71c0-0.89-0.81-1.16-1.26-1.16
	c-1.17,0-6.02,6.05-6.82,6.05c-0.45,0-0.72-0.36-0.72-0.71c0-0.54,5.03-5.52,6.1-6.32c0.36-0.26,1.26-0.44,1.53-0.44
	c1.53,0,2.6,1.24,2.6,2.58c0,0.44-0.439,1.42-0.799,1.86c-2.791,2.85-5.661,5.689-8.53,8.36c-0.63,0.53-1.62,0.8-2.34,0.8
	c-2.33,0-3.86-1.87-3.86-3.82c0-2.939,3.23-4.619,6.38-7.91c2.24-2.49,4.66-4.98,7.271-7.2C15.32,1.5,16.12,1.5,17.38,1.5
	C20.34,1.5,22.5,3.81,22.5,6.48z"/>
</svg>
