<?xml version="1.0" encoding="utf-8"?>
<!-- Generator: Adobe Illustrator 16.0.3, SVG Export Plug-In . SVG Version: 6.00 Build 0)  -->
<!DOCTYPE svg PUBLIC "-//W3C//DTD SVG 1.1 Tiny//EN" "http://www.w3.org/Graphics/SVG/1.1/DTD/svg11-tiny.dtd">
<svg version="1.1" baseProfile="tiny" id="Layer_1" xmlns="http://www.w3.org/2000/svg" xmlns:xlink="http://www.w3.org/1999/xlink"
	 x="0px" y="0px" width="23px" height="23px" viewBox="0 0 23 23" overflow="scroll" xml:space="preserve">
<path fill-rule="evenodd" fill="#2AB4C0" d="M12.061,7.57v3.37h3.369c0.17,0.17,0.34,0.34,0.34,0.52c0,0.261-0.17,0.431-0.34,0.601
	h-3.369v3.369c-0.17,0.17-0.34,0.34-0.601,0.34c-0.18,0-0.35-0.17-0.52-0.34v-3.369H7.57c-0.17-0.17-0.25-0.34-0.25-0.601
	c0-0.18,0.08-0.35,0.25-0.52h3.37V7.57c0.17-0.17,0.34-0.25,0.52-0.25C11.72,7.32,11.89,7.4,12.061,7.57z M21.29,11.46
	c0,5.521-4.569,9.83-9.92,9.83c-5.61,0-9.66-4.83-9.66-9.83c0-5.27,4.31-9.75,9.66-9.75C16.721,1.71,21.29,6.02,21.29,11.46z
	 M22.5,11.46c0,6.21-4.83,11.04-11.04,11.04c-3.71,0-8.2-1.9-10.27-6.99c-0.34-0.949-0.69-2.76-0.69-2.93v-2.16
	C1.45,3.69,6.45,0.5,11.46,0.5C17.67,0.5,22.5,5.33,22.5,11.46z"/>
</svg>
