<?xml version="1.0" encoding="utf-8"?>
<!-- Generator: Adobe Illustrator 16.0.3, SVG Export Plug-In . SVG Version: 6.00 Build 0)  -->
<!DOCTYPE svg PUBLIC "-//W3C//DTD SVG 1.1//EN" "http://www.w3.org/Graphics/SVG/1.1/DTD/svg11.dtd">
<svg version="1.1" id="Layer_1" xmlns="http://www.w3.org/2000/svg" xmlns:xlink="http://www.w3.org/1999/xlink" x="0px" y="0px"
	 width="20px" height="20px" viewBox="0 0 20 20" enable-background="new 0 0 20 20" xml:space="preserve">
<path fill-rule="evenodd" clip-rule="evenodd" fill="#A8D709" d="M15.38,7.02c0,0.45-5.24,5.4-6.41,6.63
	c-0.28,0.279-0.39,0.33-0.61,0.33c-0.34,0-0.28-0.11-0.67-0.44c-0.17-0.17-3.07-2.84-3.07-3.34c0-0.4,0.34-0.62,0.62-0.62
	c0.5,0,3.06,2.79,3.17,2.9c1.28-1.391,5.85-6.13,6.3-6.13C14.99,6.35,15.38,6.69,15.38,7.02z M20,10.03C20,15.6,15.43,20,9.97,20
	C4.35,20,0,15.43,0,10.03C0,4.51,4.35,0,9.97,0C15.6,0,20,4.51,20,10.03z"/>
</svg>
