<?xml version="1.0" encoding="utf-8"?>
<!-- Generator: Adobe Illustrator 16.0.3, SVG Export Plug-In . SVG Version: 6.00 Build 0)  -->
<!DOCTYPE svg PUBLIC "-//W3C//DTD SVG 1.1 Tiny//EN" "http://www.w3.org/Graphics/SVG/1.1/DTD/svg11-tiny.dtd">
<svg version="1.1" baseProfile="tiny" id="Layer_1" xmlns="http://www.w3.org/2000/svg" xmlns:xlink="http://www.w3.org/1999/xlink"
	 x="0px" y="0px" width="16px" height="16px" viewBox="0 0 16 16" xml:space="preserve">
<path fill-rule="evenodd" fill="#498BB6" d="M8.5,5.98v2.71h2.68c0.2,0.07,0.471,0.541,0.471,0.541c0,0.74-1.68,0.609-2.08,0.609
	c-0.131,0-2.21,0.131-2.21-0.48V5.84C7.43,5.51,7.7,5.51,7.9,5.51C8.17,5.51,8.5,5.71,8.5,5.98z M12.99,9.09
	c0,2.85-2.48,5.01-5.02,5.01c-2.75,0-4.96-2.3-4.96-5.01c0-2.84,2.21-5.01,4.96-5.01C10.779,4.08,12.99,6.39,12.99,9.09z
	 M14.79,9.09c0,3.93-3.14,6.91-6.82,6.91c-2.28,0-5.16-1.221-6.36-4.4c-0.2-0.539-0.4-1.49-0.4-1.629V8.21
	c0.8-4.33,3.74-5.95,6.76-5.95C11.85,2.26,14.79,5.17,14.79,9.09z M15.529,2.32C16,2.93,16,3.41,16,4.02c0,0.74-0.2,1.35-0.939,2.37
	c-0.67-2.31-3.811-4.81-5.82-4.88c0.8-1.35,1.81-1.49,2.74-1.49C13.46,0.02,14.13,0.36,15.529,2.32z M6.83,1.44
	C4.62,1.65,1.54,4.08,0.94,6.39C0.2,5.64,0,4.76,0,4.02c0-1.49,0.47-2.37,2.48-3.73c0.53-0.4,0.93-0.27,1.47-0.27
	C5.02,0.02,5.62,0.16,6.83,1.44z"/>
</svg>
