<?xml version="1.0" encoding="utf-8"?>
<!-- Generator: Adobe Illustrator 16.0.3, SVG Export Plug-In . SVG Version: 6.00 Build 0)  -->
<!DOCTYPE svg PUBLIC "-//W3C//DTD SVG 1.1 Tiny//EN" "http://www.w3.org/Graphics/SVG/1.1/DTD/svg11-tiny.dtd">
<svg version="1.1" baseProfile="tiny" id="Layer_1" xmlns="http://www.w3.org/2000/svg" xmlns:xlink="http://www.w3.org/1999/xlink"
	 x="0px" y="0px" width="21px" height="20px" viewBox="0 0 21 20" xml:space="preserve">
<path fill-rule="evenodd" fill="#CCDEEA" d="M16.641,8.465c0,4.169-3.631,7.39-7.75,7.39c-4.36,0-7.65-3.461-7.65-7.39
	c0-4.17,3.54-7.31,7.65-7.31C13.26,1.155,16.641,4.535,16.641,8.465z M17.87,8.545c0,1.81-0.41,3.459-2.14,5.58
	c0.74,0.709,5.27,4.721,5.27,5.27c0,0.471-0.49,0.631-0.66,0.631c-0.58,0-4.779-4.33-5.52-5.041c-2.141,1.66-3.78,2.051-5.84,2.051
	c-3.05,0-6.67-1.42-8.4-5.35C0.33,10.985,0,9.565,0,9.405v-1.73c0.82-5.26,4.86-7.7,8.89-7.7C14-0.025,17.87,3.825,17.87,8.545z"/>
</svg>
