<?xml version="1.0" encoding="utf-8"?>
<!-- Generator: Adobe Illustrator 16.0.3, SVG Export Plug-In . SVG Version: 6.00 Build 0)  -->
<!DOCTYPE svg PUBLIC "-//W3C//DTD SVG 1.1//EN" "http://www.w3.org/Graphics/SVG/1.1/DTD/svg11.dtd">
<svg version="1.1" id="Layer_1" xmlns="http://www.w3.org/2000/svg" xmlns:xlink="http://www.w3.org/1999/xlink" x="0px" y="0px"
	 width="20px" height="20px" viewBox="0 0 20 20" enable-background="new 0 0 20 20" xml:space="preserve">
<path fill-rule="evenodd" clip-rule="evenodd" fill="#498BB6" d="M14.88,8.21c0,4.011-3.06,6.931-6.58,6.931
	c-2.49,0-5.26-1.461-6.36-4.991C1.83,9.73,1.71,8.94,1.71,8.81V7.54C2.17,3.4,5.41,1.28,8.3,1.28C12.109,1.28,14.88,4.44,14.88,8.21
	z M16.09,8.21c0,1.82-0.52,3.521-1.85,5.41c1.039,1.09,5.26,5.29,5.26,5.71c0,0.37-0.29,0.67-0.58,0.67
	c-0.46,0-3.641-3.59-5.48-5.529C11.7,15.99,9.91,16.41,8.24,16.41c-2.66,0-6.07-1.52-7.34-5.47C0.73,10.27,0.5,9,0.5,8.88V7.54
	C0.9,2.61,4.83,0,8.3,0C12.689,0,16.09,3.71,16.09,8.21z"/>
</svg>
