<?xml version="1.0" encoding="utf-8"?>
<!-- Generator: Adobe Illustrator 16.0.3, SVG Export Plug-In . SVG Version: 6.00 Build 0)  -->
<!DOCTYPE svg PUBLIC "-//W3C//DTD SVG 1.1//EN" "http://www.w3.org/Graphics/SVG/1.1/DTD/svg11.dtd">
<svg version="1.1" id="Layer_1" xmlns="http://www.w3.org/2000/svg" xmlns:xlink="http://www.w3.org/1999/xlink" x="0px" y="0px"
	 width="23px" height="23px" viewBox="0 0 23 23" enable-background="new 0 0 23 23" xml:space="preserve">
<path fill-rule="evenodd" clip-rule="evenodd" fill="#2AB4C0" d="M12.668,18.99c0,0.779-0.679,1.25-1.209,1.25
	c-0.75,0-1.13-0.7-1.13-1.25c0-0.79,0.6-1.18,1.13-1.18C12.208,17.811,12.668,18.439,12.668,18.99z M16.288,4.01v12.47h-9.58V4.01
	H16.288z M13.868,2.451v0.54h-4.75v-0.54H13.868z M15.838,1.5c0.75-0.07,1.66,0.95,1.66,1.49V19.93c0.07,0.631-0.98,1.57-1.51,1.57
	h-9.06c-0.6,0.07-1.43-1.02-1.43-1.49V2.991c0.08-0.7,0.91-1.56,1.58-1.49H15.838z"/>
</svg>
