<?xml version="1.0" encoding="utf-8"?>
<!-- Generator: Adobe Illustrator 16.0.3, SVG Export Plug-In . SVG Version: 6.00 Build 0)  -->
<!DOCTYPE svg PUBLIC "-//W3C//DTD SVG 1.1//EN" "http://www.w3.org/Graphics/SVG/1.1/DTD/svg11.dtd">
<svg version="1.1" id="Layer_1" xmlns="http://www.w3.org/2000/svg" xmlns:xlink="http://www.w3.org/1999/xlink" x="0px" y="0px"
	 width="14px" height="14px" viewBox="0 0 14 14" enable-background="new 0 0 14 14" xml:space="preserve">
<path fill-rule="evenodd" clip-rule="evenodd" fill="#999999" d="M6.964,3.928v3.446h2.503c0.464,0.063,0.392,0.348,0.392,0.491
	s0,0.489-0.258,0.489c-0.525,0.071-1.514,0.071-1.71,0.071c-0.134,0-1.451,0.205-1.915-0.284V3.723
	c0.134-0.143,0.268-0.286,0.464-0.286C6.572,3.438,6.964,3.652,6.964,3.928z M12.629,7.089c0,3.509-2.698,6.039-5.665,6.039
	c-3.286,0-5.592-2.877-5.592-6.039c0-3.295,2.502-5.967,5.592-5.967C10.26,1.122,12.629,3.928,12.629,7.089z M13.68,7.089
	c0,4.07-3.091,7.161-6.716,7.161c-3.811,0-6.644-3.438-6.644-7.232C0.32,3.02,3.348,0,6.964,0C10.785,0,13.68,3.233,13.68,7.089z"/>
</svg>
