<?xml version="1.0" encoding="utf-8"?>
<!-- Generator: Adobe Illustrator 16.0.3, SVG Export Plug-In . SVG Version: 6.00 Build 0)  -->
<!DOCTYPE svg PUBLIC "-//W3C//DTD SVG 1.1 Tiny//EN" "http://www.w3.org/Graphics/SVG/1.1/DTD/svg11-tiny.dtd">
<svg version="1.1" baseProfile="tiny" id="Layer_1" xmlns="http://www.w3.org/2000/svg" xmlns:xlink="http://www.w3.org/1999/xlink"
	 x="0px" y="0px" width="18px" height="18px" viewBox="0 0 18 18" xml:space="preserve">
<path fill-rule="evenodd" fill="#AA0000" d="M10.311,12.07c0.069,0.07,0,2.75,0,2.89H7.76l-0.21-0.21v-2.471
	c0.07-0.139,0.21-0.209,0.36-0.209H10.311z M10.59,3.18c0.07,0.14,0.07,0.28,0.07,0.49l-0.21,6.78c0,0.489-1.13,0.42-1.49,0.42
	c-1.2,0-1.62,0.21-1.48-1.62L7.34,3.67V3.32c0.28-0.64,1.55-0.28,1.62-0.28C9.39,3.04,10.45,2.82,10.59,3.18z M18,8.96
	C18,14.189,13.84,18,8.96,18c-2.89,0-6.56-1.48-8.25-5.359C0.64,12.35,0,10.45,0,9.88V8.12C0.85,2.54,4.94,0,8.96,0
	C14.189,0,18,4.09,18,8.96z"/>
</svg>
