<?xml version="1.0" encoding="utf-8"?>
<!-- Generator: Adobe Illustrator 16.0.3, SVG Export Plug-In . SVG Version: 6.00 Build 0)  -->
<!DOCTYPE svg PUBLIC "-//W3C//DTD SVG 1.1 Tiny//EN" "http://www.w3.org/Graphics/SVG/1.1/DTD/svg11-tiny.dtd">
<svg version="1.1" baseProfile="tiny" id="Layer_1" xmlns="http://www.w3.org/2000/svg" xmlns:xlink="http://www.w3.org/1999/xlink"
	 x="0px" y="0px" width="21px" height="21px" viewBox="0 0 21 21" overflow="scroll" xml:space="preserve">
<path fill-rule="evenodd" fill="#FFFFFF" d="M19.68,14.74C20.62,14.779,21,15.529,21,16.1c0,0.131-0.05,0.221-0.05,0.301
	c0,0.399-0.75,1.1-1.171,1.1H1.17C0.28,17.24,0,16.67,0,16.1c0-0.619,0.33-1.189,1.27-1.359H19.68z M19.68,9.12
	C20.62,9.16,21,9.91,21,10.48c0,0.13-0.05,0.22-0.05,0.31c0,0.39-0.75,1.09-1.171,1.09H1.17C0.28,11.62,0,11.05,0,10.48
	c0-0.62,0.33-1.19,1.27-1.36H19.68z M19.68,3.5C20.62,3.54,21,4.29,21,4.86c0,0.13-0.05,0.22-0.05,0.31c0,0.39-0.75,1.09-1.171,1.09
	H1.17C0.28,6,0,5.43,0,4.86C0,4.25,0.33,3.68,1.27,3.5H19.68z"/>
</svg>
