<?xml version="1.0" encoding="utf-8"?>
<!-- Generator: Adobe Illustrator 16.0.3, SVG Export Plug-In . SVG Version: 6.00 Build 0)  -->
<!DOCTYPE svg PUBLIC "-//W3C//DTD SVG 1.1 Tiny//EN" "http://www.w3.org/Graphics/SVG/1.1/DTD/svg11-tiny.dtd">
<svg version="1.1" baseProfile="tiny" id="Layer_1" xmlns="http://www.w3.org/2000/svg" xmlns:xlink="http://www.w3.org/1999/xlink"
	 x="0px" y="0px" width="20px" height="20px" viewBox="0 0 20 20" overflow="scroll" xml:space="preserve">
<path fill-rule="evenodd" fill="#9BBFD6" d="M12.561,8.73c0,0.32-2.17,2.22-3.261,3.331c-0.62-0.471-1.39-1.271-2.01-1.9l0.93-0.95
	l0.93,0.95c0.77-0.64,1.7-1.59,2.48-2.38C11.939,7.94,12.561,8.25,12.561,8.73z M14.57,9.84c0,2.86-2.32,4.76-4.65,4.76
	c-2.79,0-4.49-2.379-4.49-4.6c0-2.86,1.7-4.6,4.49-4.6S14.57,7.14,14.57,9.84z M16.279,10c0,3.49-2.949,6.51-6.359,6.51
	c-3.87,0-6.2-3.34-6.2-6.67c0-3.97,2.79-6.35,6.2-6.35C13.8,3.49,16.279,6.35,16.279,10z M9.92,0.63c0.47,0,1.71-0.63,2.02-0.63
	c0.931,0,0.621,0.79,1.86,1.43c0.46,0.32,1.24,0.16,1.86,0.16c0.311,0,0.619,0.16,0.77,0.63c0.311,0.32,0.16,1.11,0.471,1.75
	c0.77,1.11,2.32,0.32,2.32,2.06c0,0.32-0.461,1.27-0.461,1.59C18.76,8.57,20,8.73,20,10c0,0.32-1.24,1.9-1.24,2.38
	c0,0.32,0.461,1.11,0.461,1.431c0,0.479-0.311,0.949-0.621,1.109c-0.31,0.16-1.24,0.16-1.699,1.109c-0.311,0.48,0,1.591-0.621,1.91
	c-0.619,0.311-1.549,0-2.17,0.311c-1.549,0.8-1.09,1.75-2.17,1.75c-0.469,0-1.549-0.79-2.02-0.79C9.61,19.21,8.37,20,8.06,20
	c-1.24,0-0.93-0.95-2.01-1.75c-0.62-0.471-2.02,0.48-2.64-0.471c-0.46-0.799,0-1.75-0.77-2.379c-0.93-0.641-1.86-0.641-1.86-1.59
	c0-0.48,0.46-1.11,0.46-1.59C1.24,11.59,0,10.79,0,9.84c0-1.11,1.24-1.27,1.24-2.38c0-0.32-0.46-1.11-0.46-1.43
	c0-1.74,2.94-1.43,2.48-3.17C3.1,2.38,3.72,1.59,4.19,1.59C4.81,1.43,5.58,1.75,6.2,1.43C7.29,0.79,6.98,0,8.06,0
	C8.37,0,9.61,0.63,9.92,0.63z"/>
</svg>
