<?xml version="1.0" encoding="utf-8"?>
<!-- Generator: Adobe Illustrator 16.0.3, SVG Export Plug-In . SVG Version: 6.00 Build 0)  -->
<!DOCTYPE svg PUBLIC "-//W3C//DTD SVG 1.1 Tiny//EN" "http://www.w3.org/Graphics/SVG/1.1/DTD/svg11-tiny.dtd">
<svg version="1.1" baseProfile="tiny" id="Layer_1" xmlns="http://www.w3.org/2000/svg" xmlns:xlink="http://www.w3.org/1999/xlink"
	 x="0px" y="0px" width="21px" height="20px" viewBox="0 0 21 20" xml:space="preserve">
<path fill-rule="evenodd" fill="#CCDEEA" d="M13.34,4.995v7.47c-0.08,0.09-0.16,0.26-0.41,0.26H7.08c-0.57-0.26-0.49-0.6-0.49-0.77
	c0-0.25,0.08-0.68,0.41-0.68h4.939v-6.28c0.17-0.51,0.5-0.43,0.66-0.43C12.93,4.565,13.34,4.655,13.34,4.995z M21,9.915
	c0,5.69-4.45,10.11-9.8,10.11c-1.4,0-2.96-0.34-4.28-1.1c-0.08,0-2.97-1.791-2.97-2.641c0-0.68,0.41-0.68,0.66-0.68
	s0.33-0.08,0.5,0.09c0.57,0.51,1.15,1.189,1.81,1.529c1.23,0.76,2.88,1.361,4.28,1.361c4.78,0,8.399-4.17,8.399-8.671
	c0-4.92-4.039-8.58-8.399-8.58c-2.39,0-5.93,1.45-7.41,4.93c0,0,0.08,0.08,0.16,0.08l3.63-1.27c0.57,0.09,0.66,0.43,0.66,0.68
	c0,0.26-0.09,0.51-0.25,0.59c-1.81,0.77-5.35,2.13-5.6,2.13c-0.17,0-0.5-0.17-0.58-0.34C1.15,6.345,0,2.865,0,2.695
	c0-0.59,0.41-0.76,0.66-0.76c0.82,0,0.9,1.19,1.07,1.61c0.25,0.51,0.49,1.28,0.74,1.96c2.55-4.51,5.6-5.53,8.809-5.53
	C16.721-0.025,21,4.315,21,9.915z"/>
</svg>
