<?xml version="1.0" encoding="utf-8"?>
<!-- Generator: Adobe Illustrator 16.0.3, SVG Export Plug-In . SVG Version: 6.00 Build 0)  -->
<!DOCTYPE svg PUBLIC "-//W3C//DTD SVG 1.1 Tiny//EN" "http://www.w3.org/Graphics/SVG/1.1/DTD/svg11-tiny.dtd">
<svg version="1.1" baseProfile="tiny" id="Layer_1" xmlns="http://www.w3.org/2000/svg" xmlns:xlink="http://www.w3.org/1999/xlink"
	 x="0px" y="0px" width="14px" height="14px" viewBox="0 0 14 14" xml:space="preserve">
<path fill-rule="evenodd" fill="#999999" d="M13,5.16v7.85H1V5.16H13z M1.95,1.7C1.78,2.64,2.51,3.68,3.46,3.68
	c0.83,0,1.78-0.88,1.56-1.98h3.96c-0.17,0.94,0.5,1.98,1.56,1.98c0.89,0,1.681-1.04,1.51-1.98H14V14H0V1.7H1.95z M11.49,1.43
	c0,0.66-0.061,1.48-1,1.48c-0.391,0-0.95-0.38-0.95-0.71V0.71C9.76,0.11,10.15,0,10.49,0C11.55,0,11.49,0.93,11.49,1.43z M4.46,1.43
	c0,0.66-0.05,1.48-1,1.48c-0.28,0-0.95-0.22-0.95-0.71V0.71C2.79,0.16,2.96,0,3.46,0C4.41,0,4.46,0.93,4.46,1.43z"/>
</svg>
