<?xml version="1.0" encoding="utf-8"?>
<!-- Generator: Adobe Illustrator 16.0.3, SVG Export Plug-In . SVG Version: 6.00 Build 0)  -->
<!DOCTYPE svg PUBLIC "-//W3C//DTD SVG 1.1 Tiny//EN" "http://www.w3.org/Graphics/SVG/1.1/DTD/svg11-tiny.dtd">
<svg version="1.1" baseProfile="tiny" id="Layer_1" xmlns="http://www.w3.org/2000/svg" xmlns:xlink="http://www.w3.org/1999/xlink"
	 x="0px" y="0px" width="17px" height="17px" viewBox="0 0 17 17" xml:space="preserve">
<path fill-rule="evenodd" fill="#498BB6" d="M5.73,1.37C5.26,1.92,4.72,2.54,4.25,3.02C4.12,3.08,3.91,3.08,3.78,3.08
	C3.31,5.35,2.43,9.67,2.43,9.87v0.409H5.6c0,0.07-0.07,0.141,0.07,2.4c0,0.141,0.33,0.76,0.6,0.76h4.46
	c0.33-0.14,0.47-0.479,0.67-0.689c0.14-2.33,0.07-2.4,0-2.471h3.24c0.069-0.069,0.069,0,0.069-0.199c0-0.141-0.81-4.6-1.22-6.86
	c-0.2-0.14-0.471-0.14-0.61-0.2c-0.47-0.48-1.01-1.1-1.55-1.65h3.71L17,10.35V17H0v-6.721L2.16,1.37H5.73z M12.62,4.46h-2.03v6.92
	H6.48V4.66H4.45L8.5,0L12.62,4.46z"/>
</svg>
