<?xml version="1.0" encoding="utf-8"?>
<!-- Generator: Adobe Illustrator 16.0.3, SVG Export Plug-In . SVG Version: 6.00 Build 0)  -->
<!DOCTYPE svg PUBLIC "-//W3C//DTD SVG 1.1 Tiny//EN" "http://www.w3.org/Graphics/SVG/1.1/DTD/svg11-tiny.dtd">
<svg version="1.1" baseProfile="tiny" id="Layer_1" xmlns="http://www.w3.org/2000/svg" xmlns:xlink="http://www.w3.org/1999/xlink"
	 x="0px" y="0px" width="17px" height="17px" viewBox="0 0 17 17" xml:space="preserve">
<path fill-rule="evenodd" fill="#498BB6" d="M16.189,6.5C16.37,6.64,16.5,6.85,16.5,6.99c0,0.49-0.689,0.77-1.07,0.98
	c-2.07,1.27-6.15,4.01-6.27,4.01c-0.381,0-0.5-0.42-0.5-0.561v-1.9H7.28C5.39,9.66,2.63,10.5,1.69,13.45C1.5,14.02,1.63,15,1,15
	c-0.44,0-0.5-0.49-0.5-0.77V12.68l0.19-1.119C1.57,7.48,6.02,5.3,8.721,4.53V2.35C8.779,2.14,8.971,2,9.16,2
	C9.279,2,13.859,4.95,16.189,6.5z"/>
</svg>
