<?xml version="1.0" encoding="utf-8"?>
<!-- Generator: Adobe Illustrator 16.0.3, SVG Export Plug-In . SVG Version: 6.00 Build 0)  -->
<!DOCTYPE svg PUBLIC "-//W3C//DTD SVG 1.1 Tiny//EN" "http://www.w3.org/Graphics/SVG/1.1/DTD/svg11-tiny.dtd">
<svg version="1.1" baseProfile="tiny" id="Layer_1" xmlns="http://www.w3.org/2000/svg" xmlns:xlink="http://www.w3.org/1999/xlink"
	 x="0px" y="0px" width="18px" height="18px" viewBox="0 0 18 18" overflow="scroll" xml:space="preserve">
<path fill-rule="evenodd" fill="#498BB6" d="M7.55,4.11C6.64,4.79,5.72,5.47,4.8,6.21H2.19v7.681h11.36v-2.24l2.19-1.631v4.15
	c-0.07,0.67-1.2,1.83-1.9,1.83h-12C1.27,16,0,14.91,0,14.3V5.87c0-0.81,1.2-1.83,1.98-1.76H7.55z M18,6.21l-5.58,4.351V8.39h-1.13
	c-2.33,0.13-4.51,0.95-6.77,3.26c0-0.541,0.07-1.15,0.14-1.7c0.56-3.06,4.73-6.18,7.76-5.84V2L18,6.21z"/>
</svg>
