<?xml version="1.0" encoding="utf-8"?>
<!-- Generator: Adobe Illustrator 16.0.3, SVG Export Plug-In . SVG Version: 6.00 Build 0)  -->
<!DOCTYPE svg PUBLIC "-//W3C//DTD SVG 1.1 Tiny//EN" "http://www.w3.org/Graphics/SVG/1.1/DTD/svg11-tiny.dtd">
<svg version="1.1" baseProfile="tiny" id="Layer_1" xmlns="http://www.w3.org/2000/svg" xmlns:xlink="http://www.w3.org/1999/xlink"
	 x="0px" y="0px" width="17px" height="17px" viewBox="0 0 17 17" xml:space="preserve">
<path fill-rule="evenodd" fill="#498BB6" d="M7.67,9.817c-0.07,0.4-0.07,0.8,0,1.27h-3.8c-0.2-0.13-0.47-0.47-0.47-0.67
	c0-0.27,0.33-0.6,0.6-0.6H7.67z M12.33,11.287c0.8-0.67,1.47-2.08,2.47-2.08c0.671,0,1.2,0.67,1.2,1.14c0,0.94-2,2.351-2,2.76
	c0,0.131,2,1.881,2,2.681c0,0.67-0.67,1.21-1.2,1.21c-0.8,0-1.6-1.48-2.399-2.15c-0.871,0.67-1.601,2.15-2.471,2.15
	c-0.66,0-1.13-0.67-1.13-1.21c0-0.8,2-2.479,2-2.75c0-0.34-2-1.75-2-2.69c0-0.6,0.53-1.14,1.13-1.14
	C10.87,9.207,11.4,10.347,12.33,11.287z M10,7.597c0.27-0.07,0.73,0.2,0.73,0.54c-0.26-0.07-0.601-0.14-0.801-0.14
	c-0.66,0-1.13,0.14-1.86,0.939H3.93C3.67,8.737,3.4,8.467,3.4,8.267c0-0.33,0.47-0.74,0.73-0.67H10z M9.93,5.387
	c0.471-0.07,0.87,0.33,0.87,0.67c0,0.06-0.2,0.6-0.53,0.6H3.87c-0.27-0.2-0.47-0.54-0.47-0.6c0-0.34,0.33-0.74,0.8-0.67H9.93z
	 M10.13,3.167c0.399,0.07,0.67,0.54,0.67,0.61c0,0.13-0.2,0.67-0.53,0.67H3.87c-0.27-0.2-0.47-0.47-0.47-0.67
	c0-0.27,0.33-0.61,0.6-0.61H10.13z M11.67,0.017c0.46-0.14,1.4,0.6,1.4,1.14v7.65c-0.2,0.199-0.471,0.469-0.6,0.67
	C12.27,9.276,11.8,9.007,11.8,8.677v-6.31c-0.069-0.07-0.399-1.01-0.93-1.01H3.13c-0.13,0.07-0.8,0.47-0.8,0.8v9.869
	C2.47,12.497,3,12.907,3.4,12.907h5.67l0.13,0.13c-0.33,0.399-0.671,0.8-1.07,1.21h-5.8c-0.2-0.07-0.53-0.141-0.66-0.27
	c-0.14,0-0.67-0.67-0.67-0.871V1.157c0-0.61,0.73-1.14,1.27-1.14H11.67z"/>
</svg>
