<?xml version="1.0" encoding="utf-8"?>
<!-- Generator: Adobe Illustrator 16.0.3, SVG Export Plug-In . SVG Version: 6.00 Build 0)  -->
<!DOCTYPE svg PUBLIC "-//W3C//DTD SVG 1.1//EN" "http://www.w3.org/Graphics/SVG/1.1/DTD/svg11.dtd">
<svg version="1.1" id="Layer_1" xmlns="http://www.w3.org/2000/svg" xmlns:xlink="http://www.w3.org/1999/xlink" x="0px" y="0px"
	 width="17px" height="17px" viewBox="0 0 17 17" enable-background="new 0 0 17 17" xml:space="preserve">
<path fill-rule="evenodd" clip-rule="evenodd" fill="#498BB6" d="M3.08,6.538C3.253,6.791,4.559,8.342,4.559,8.84
	c0,0.688-1.005,1.061-1.005,1.56c0,1.368,1.955,3.3,3.079,3.3c0.475,0,0.831-1.061,1.479-1.061c0.538,0,1.963,1.242,2.255,1.621
	c0.119,0.056,0.175,0.31,0.175,0.492c0,0.561-0.941,1.867-1.654,1.93c-0.301,0.063-0.775,0.127-0.895,0.127
	c-2.547,0-5.863-1.741-7.05-5.412C0.761,10.835,0.587,9.71,0.587,9.592V8.405c0-0.934,1.187-2.05,1.899-2.05
	C2.66,6.355,2.897,6.355,3.08,6.538z M14.103,5.73c0,0.499-0.42,0.744-0.657,0.744c-0.467,0-0.704-0.436-0.704-0.744
	c0-0.435,0.356-0.688,0.648-0.688C13.802,5.042,14.103,5.422,14.103,5.73z M11.792,5.73c0,0.499-0.42,0.744-0.713,0.744
	c-0.418,0-0.656-0.436-0.656-0.744c0-0.435,0.356-0.688,0.656-0.688C11.49,5.042,11.792,5.485,11.792,5.73z M9.481,5.73
	c0,0.499-0.42,0.744-0.713,0.744c-0.537,0-0.656-0.436-0.656-0.744S8.35,5.042,8.769,5.042C9.243,5.042,9.481,5.422,9.481,5.73z
	 M16.413,5.794c0,3.236-2.549,5.539-5.334,5.539c-0.712,0-1.542-0.19-2.255-0.562c-0.174-0.063-0.355-0.245-0.475-0.245
	c-0.174,0-1.717,0.553-1.891,0.553c-0.419,0-0.419-0.244-0.419-0.498c0-0.118,0.475-1.741,0.475-1.86
	c0-0.063-0.713-1.866-0.713-2.302v-1.25c0.42-3.419,3.023-4.978,5.278-4.978C14.222,0.191,16.413,2.803,16.413,5.794z"/>
</svg>
