<?xml version="1.0" encoding="utf-8"?>
<!-- Generator: Adobe Illustrator 16.0.3, SVG Export Plug-In . SVG Version: 6.00 Build 0)  -->
<!DOCTYPE svg PUBLIC "-//W3C//DTD SVG 1.1//EN" "http://www.w3.org/Graphics/SVG/1.1/DTD/svg11.dtd">
<svg version="1.1" id="Layer_1" xmlns="http://www.w3.org/2000/svg" xmlns:xlink="http://www.w3.org/1999/xlink" x="0px" y="0px"
	 width="20px" height="20px" viewBox="0 0 20 20" enable-background="new 0 0 20 20" xml:space="preserve">
<path fill-rule="evenodd" clip-rule="evenodd" fill="#F55858" d="M0,10C0,4.48,4.48,0,10,0c5.52,0,10,4.48,10,10
	c0,5.52-4.48,10-10,10C4.48,20,0,15.52,0,10z"/>
<path fill-rule="evenodd" clip-rule="evenodd" fill="#FFFFFF" d="M9.97,9.13C10.38,8.71,13.88,5,14.439,5C14.79,5,15,5.14,15,5.56
	c0,0.49-3.71,3.92-4.13,4.41c1.26,1.32,2.659,2.65,3.989,4.12C15,14.16,15,14.3,15,14.439C15,14.859,14.58,15,14.439,15
	c-0.56,0-3.989-3.71-4.41-4.13c-1.32,1.26-2.72,2.659-4.12,3.989C5.77,15,5.7,15,5.49,15C5,15,5,14.58,5,14.439
	c0-0.56,3.64-3.989,4.13-4.41C8.71,9.55,5,6.05,5,5.56C5,5.14,5.14,5,5.49,5C6.12,5,9.48,8.64,9.97,9.13z"/>
</svg>
