<?xml version="1.0" encoding="utf-8"?>
<!-- Generator: Adobe Illustrator 16.0.3, SVG Export Plug-In . SVG Version: 6.00 Build 0)  -->
<!DOCTYPE svg PUBLIC "-//W3C//DTD SVG 1.1 Tiny//EN" "http://www.w3.org/Graphics/SVG/1.1/DTD/svg11-tiny.dtd">
<svg version="1.1" baseProfile="tiny" id="Layer_1" xmlns="http://www.w3.org/2000/svg" xmlns:xlink="http://www.w3.org/1999/xlink"
	 x="0px" y="0px" width="16px" height="16px" viewBox="0 0 16 16" xml:space="preserve">
<path fill-rule="evenodd" fill="#498BB6" d="M8.661,1.259C8.931,1.33,9.19,1.509,9.19,1.7v2.57c0,0.13,0.201,0.69,0.541,0.69h2.58
	c0.129,0,0.799,0,0.799,0.38v8.471c-0.139,0.31-0.799,0.939-1.06,0.939h-8.23c-0.26-0.13-0.99-0.51-0.99-0.88V2.14
	c-0.07-0.38,0.73-0.94,1.13-0.88H8.661z M9.392,0.009c0.869-0.06,5.109,4.01,5.109,4.76v8.91c-0.07,0.75-1.13,2.32-2.189,2.32h-8.75
	c-0.73,0-2.06-1.189-2.06-1.88V1.89c-0.06-0.69,1.33-2.01,2.19-1.88H9.392z"/>
</svg>
