<?xml version="1.0" encoding="utf-8"?>
<!-- Generator: Adobe Illustrator 16.0.3, SVG Export Plug-In . SVG Version: 6.00 Build 0)  -->
<!DOCTYPE svg PUBLIC "-//W3C//DTD SVG 1.1//EN" "http://www.w3.org/Graphics/SVG/1.1/DTD/svg11.dtd">
<svg version="1.1" id="Layer_1" xmlns="http://www.w3.org/2000/svg" xmlns:xlink="http://www.w3.org/1999/xlink" x="0px" y="0px"
	 width="14px" height="11px" viewBox="0 0 14 11" enable-background="new 0 0 14 11" xml:space="preserve">
<g>
	<path fill-rule="evenodd" clip-rule="evenodd" fill="#498BB6" d="M6.219,1.329c0.05,0.69,0,0.73,0,0.78h5.04
		c0.561,0.14,0.94,0.55,0.94,1.05v5.411c0.09,0.51-0.57,1.1-0.9,1.1h-5.97c-0.38,0-0.94-0.641-0.94-0.96v-2.29
		c-0.14-0.09-0.28-0.09-0.38-0.09c-0.14,0-0.28,0-0.42,0.09v2.52c0,0.601,1.03,1.561,1.69,1.561h6.02c0.71-0.05,1.7-0.92,1.7-1.561
		v-6.1c0.05-0.55-0.939-1.6-1.55-1.51H6.219z M1.189,0.508c-0.05,0.04-0.19,0.09-0.19,0.23v3.57c0.14,0.28,0.33,0.32,0.42,0.32
		c0.33,0,1.37-1.19,1.46-1.28l4.57,4.351c0.329-0.271,0.7-0.64,0.94-0.96L3.959,2.338c0.15-0.18,1.32-1.19,1.32-1.51
		c0-0.14-0.19-0.37-0.33-0.32H1.189z"/>
</g>
</svg>
