<?xml version="1.0" encoding="utf-8"?>
<!-- Generator: Adobe Illustrator 16.0.3, SVG Export Plug-In . SVG Version: 6.00 Build 0)  -->
<!DOCTYPE svg PUBLIC "-//W3C//DTD SVG 1.1//EN" "http://www.w3.org/Graphics/SVG/1.1/DTD/svg11.dtd">
<svg version="1.1" id="Layer_1" xmlns="http://www.w3.org/2000/svg" xmlns:xlink="http://www.w3.org/1999/xlink" x="0px" y="0px"
	 width="7px" height="12px" viewBox="0 0 7 12" enable-background="new 0 0 7 12" xml:space="preserve">
<path fill-rule="evenodd" clip-rule="evenodd" fill="#FFFFFF" d="M5.1,0.75C3.45,2.31,1.8,3.91,0.19,5.55C0.1,5.65,0,5.88,0,5.98
	c0,0.37,0.39,0.66,0.78,1.081c1.65,1.6,3.35,3.25,5,4.799C5.93,11.95,6.13,12,6.221,12C6.76,12,7,11.62,7,11.2
	c0-0.091,0-0.33-0.1-0.421C5.35,9.18,3.65,7.62,1.99,6.02c1.61-1.6,3.31-3.2,4.91-4.8C7,1.08,7,0.89,7,0.75C7,0.33,6.76,0,6.221,0
	C5.779,0,5.779,0.09,5.1,0.75z"/>
</svg>
