<?xml version="1.0" encoding="utf-8"?>
<!-- Generator: Adobe Illustrator 16.0.3, SVG Export Plug-In . SVG Version: 6.00 Build 0)  -->
<!DOCTYPE svg PUBLIC "-//W3C//DTD SVG 1.1//EN" "http://www.w3.org/Graphics/SVG/1.1/DTD/svg11.dtd">
<svg version="1.1" id="Layer_1" xmlns="http://www.w3.org/2000/svg" xmlns:xlink="http://www.w3.org/1999/xlink" x="0px" y="0px"
	 width="21px" height="15px" viewBox="0 0 21 15" enable-background="new 0 0 21 15" xml:space="preserve">
<path fill-rule="evenodd" clip-rule="evenodd" fill="#498BB6" d="M10.5,10.527c0.45,0,2.9-2.389,3.05-2.469l5.07,5.42H2.38
	l5.07-5.42C7.82,8.378,10.13,10.527,10.5,10.527z M19.66,12.448l-4.99-5.35l4.99-4.38V12.448z M6.33,7.018l-4.99,5.43v-9.73
	L6.33,7.018z M18.77,1.518L10.5,8.777L2.23,1.518H18.77z M19.359,0.008c0.601,0,1.641,0.71,1.641,1.51v11.96
	c-0.07,0.72-1.12,1.52-1.49,1.52H1.41c-0.59,0-1.41-0.88-1.41-1.439V1.438c0-0.8,1.04-1.51,1.56-1.43H19.359z"/>
</svg>
