<?xml version="1.0" encoding="utf-8"?>
<!-- Generator: Adobe Illustrator 16.0.3, SVG Export Plug-In . SVG Version: 6.00 Build 0)  -->
<!DOCTYPE svg PUBLIC "-//W3C//DTD SVG 1.1 Tiny//EN" "http://www.w3.org/Graphics/SVG/1.1/DTD/svg11-tiny.dtd">
<svg version="1.1" baseProfile="tiny" id="Layer_1" xmlns="http://www.w3.org/2000/svg" xmlns:xlink="http://www.w3.org/1999/xlink"
	 x="0px" y="0px" width="13px" height="13px" viewBox="0 0 13 13" xml:space="preserve">
<path fill-rule="evenodd" fill="#323A6B" d="M7.391,4.45c0,0.47-0.31,1.28-0.82,1.64c0.77,0.36,1.63,0.57,2.241,1.18
	c0.26,0.201,0.109,0.92,0.109,1.07c0,0.11,0,0.62-0.061,0.92c0,0.11-0.1,0.211-0.199,0.311h-5.6c-0.11-0.051-0.26-0.15-0.26-0.25v-2
	c0.61-0.561,1.53-0.82,2.35-1.23c-0.67-0.36-0.87-1.17-0.87-1.64c0-0.71,0.51-1.84,1.58-1.84C6.931,2.61,7.391,3.74,7.391,4.45z
	 M11.211,0c0.399-0.05,0.56,0.57,0.511,0.87c1.469,0,1.27,0,1.27,0.98c0,0.05,0.05,0.97-0.311,0.97h-0.959v1.17h1.069l0.2,0.21v1.38
	c-0.051,0.15-0.15,0.31-0.311,0.31h-0.959v1.17h1.069l0.2,0.209v1.48l-0.2,0.21h-1.069v1.17h0.959c0.11,0.06,0.211,0.11,0.311,0.21
	v1.48l-0.2,0.209h-1.069c0,0,0,0.971-0.511,0.971H0.461c-0.15-0.05-0.46-0.311-0.46-0.41V0.36c0.1-0.15,0.25-0.31,0.41-0.36H11.211z
	"/>
</svg>
