<?xml version="1.0" encoding="utf-8"?>
<!-- Generator: Adobe Illustrator 16.0.3, SVG Export Plug-In . SVG Version: 6.00 Build 0)  -->
<!DOCTYPE svg PUBLIC "-//W3C//DTD SVG 1.1//EN" "http://www.w3.org/Graphics/SVG/1.1/DTD/svg11.dtd">
<svg version="1.1" id="Layer_1" xmlns="http://www.w3.org/2000/svg" xmlns:xlink="http://www.w3.org/1999/xlink" x="0px" y="0px"
	 width="20px" height="20px" viewBox="0 0 20 20" enable-background="new 0 0 20 20" xml:space="preserve">
<path fill-rule="evenodd" clip-rule="evenodd" fill="#FFCC00" d="M10.38,3.96v5.6h4.091c0.139,0.06,0.27,0.06,0.34,0.06
	c0.209,0.21,0.34,0.41,0.34,0.55c0,0.34-0.34,0.68-0.68,0.68H9.83c-0.34-0.13-0.68-0.27-0.68-0.68V2.94
	c0.2-0.41,0.47-0.62,0.61-0.62C10.51,2.32,10.38,3.75,10.38,3.96z M20,10.03C20,15.63,15.49,20,9.97,20c-3.62,0-7.92-2.05-9.56-6.96
	C0.2,12.35,0,11.13,0,10.99V9.01C0.82,2.94,5.46,0,9.97,0C15.63,0,20,4.44,20,10.03z"/>
</svg>
