<?xml version="1.0" encoding="utf-8"?>
<!-- Generator: Adobe Illustrator 16.0.3, SVG Export Plug-In . SVG Version: 6.00 Build 0)  -->
<!DOCTYPE svg PUBLIC "-//W3C//DTD SVG 1.1//EN" "http://www.w3.org/Graphics/SVG/1.1/DTD/svg11.dtd">
<svg version="1.1" id="Layer_1" xmlns="http://www.w3.org/2000/svg" xmlns:xlink="http://www.w3.org/1999/xlink" x="0px" y="0px"
	 width="23px" height="23px" viewBox="0 0 23 23" enable-background="new 0 0 23 23" xml:space="preserve">
<path fill-rule="evenodd" clip-rule="evenodd" fill="#2AB4C0" d="M11.46,13.629c0.08-0.19,7.16-7.85,7.681-7.85
	c0.43,0,0.6,0.28,0.6,0.55c0,0.47-0.95,1.2-1.211,1.57c-2.069,2.13-4.229,4.529-6.379,6.74c-0.18,0.189-0.43,0.279-0.69,0.279
	c-0.52,0-0.87-0.46-1.38-1.01C7.75,11.5,5.59,9.1,3.35,6.7V6.33c0-0.46,0.08-0.55,0.51-0.55C4.3,5.779,9.9,11.97,11.46,13.629z
	 M21.29,4.299v14.309H1.71V4.299H21.29z M21.46,3.009c0.261,0,1.04,0.55,1.04,0.83v15.14c-0.17,0.189-0.689,1.02-1.21,1.02H1.62
	c-0.17-0.18-1.12-0.55-1.12-0.92V3.839c0.09-0.28,0.69-0.92,0.95-0.83H21.46z"/>
</svg>
