<?xml version="1.0" encoding="utf-8"?>
<!-- Generator: Adobe Illustrator 16.0.3, SVG Export Plug-In . SVG Version: 6.00 Build 0)  -->
<!DOCTYPE svg PUBLIC "-//W3C//DTD SVG 1.1//EN" "http://www.w3.org/Graphics/SVG/1.1/DTD/svg11.dtd">
<svg version="1.1" id="Layer_1" xmlns="http://www.w3.org/2000/svg" xmlns:xlink="http://www.w3.org/1999/xlink" x="0px" y="0px"
	 width="23px" height="23px" viewBox="0 0 23 23" enable-background="new 0 0 23 23" xml:space="preserve">
<path fill-rule="evenodd" clip-rule="evenodd" fill="#2AB4C0" d="M8.438,5.08c0.19,0.1,0.28,0.28,0.28,0.46c0,1.01-2.4,2.2-2.4,3.21
	c0,2.11,5.72,7.88,7.75,7.88c1.02,0,2.22-2.38,3.229-2.38c0.56,0,3.421,3.02,3.61,3.3c0.18,0.091,0.27,0.271,0.27,0.46
	c0,0.461-2.31,2.66-2.49,2.75c-0.18,0.18-0.459,0.27-0.739,0.27c-0.181,0.091-0.46,0.091-0.74,0.091c-1.29,0-3.04-0.82-4.149-1.28
	c-5.08-2.29-11.27-9.62-11.27-14.12c0-0.54-0.18-0.82,0.37-1.55c0.46-0.74,2.03-2.3,2.68-2.3C5.858,1.87,8.258,4.81,8.438,5.08z
	 M9.548,4.26c0.37,0.27,0.55,1.1,0.55,1.28c0,1.38-1.2,1.93-2.4,3.39c0.46,0.83,1.11,1.74,1.76,2.57c0.09,0.09,3.78,3.67,4.52,3.67
	c0.369,0,1.85-2.3,3.319-2.3c1.671,0,3.33,2.479,4.71,3.86c0.65,0.539,0.471,0.819,0.471,1.279c0,1.471-2.311,3.66-3.701,4.221
	c-0.459,0.18-1.289,0.27-1.479,0.27c-5.26,0-13.379-6.779-15.879-12.65c-0.37-1.01-0.92-2.66-0.92-2.84V4.53
	c0.83-1.83,2.77-4.03,4.34-4.03C6.588,0.5,7.889,2.61,9.548,4.26z"/>
</svg>
