<?xml version="1.0" encoding="utf-8"?>
<!-- Generator: Adobe Illustrator 16.0.3, SVG Export Plug-In . SVG Version: 6.00 Build 0)  -->
<!DOCTYPE svg PUBLIC "-//W3C//DTD SVG 1.1 Tiny//EN" "http://www.w3.org/Graphics/SVG/1.1/DTD/svg11-tiny.dtd">
<svg version="1.1" baseProfile="tiny" id="Layer_1" xmlns="http://www.w3.org/2000/svg" xmlns:xlink="http://www.w3.org/1999/xlink"
	 x="0px" y="0px" width="21px" height="20px" viewBox="0 0 21 20" xml:space="preserve">
<path fill-rule="evenodd" fill="#CCDEEA" d="M12.109,5.496c0.33,0.5,0.49,1.74,1.4,1.9c1.641,0.41,3.54,0.66,5.27,0.91
	c-1.239,1.32-3.219,2.88-4.039,4.291l0.91,5.44c-0.41-0.25-4.53-2.48-5.19-2.48s-4.78,2.311-5.11,2.48l0.91-5.44
	c-0.91-1.32-2.88-3.051-4.04-4.291c1.73-0.25,3.54-0.41,5.27-0.91c0.91-0.25,1.16-1.81,1.65-2.55c0.5-0.83,0.91-1.74,1.32-2.56
	C11.04,3.276,11.529,4.426,12.109,5.496z M12.76,3.686c0.42,0.66,0.42,1.98,1.32,2.31c1.98,0.91,4.37,0.66,6.51,1.15
	c0.25,0.09,0.41,0.42,0.41,0.58c0,0.41-4.12,4.451-4.779,5.201l0.989,6.26c0.08,0.33-0.41,0.91-0.66,0.83l-6.09-2.97l-6.1,2.97
	c-0.82-0.25-0.57-0.33-0.57-0.83l0.99-6.26c-1.57-1.57-3.3-3.221-4.7-4.791C0,8.056,0,7.976,0,7.726c0-0.16,0-0.41,0.25-0.49
	c0.66-0.25,1.56-0.33,2.39-0.5c0.65-0.08,1.4-0.25,2.14-0.33c0.57-0.16,1.64,0.17,2.14-0.41c1.32-1.57,1.89-3.88,2.96-5.69
	c0.17-0.33,0.41-0.33,0.58-0.33C11.2-0.024,12.6,3.196,12.76,3.686z"/>
</svg>
