<?xml version="1.0" encoding="utf-8"?>
<!-- Generator: Adobe Illustrator 16.0.3, SVG Export Plug-In . SVG Version: 6.00 Build 0)  -->
<!DOCTYPE svg PUBLIC "-//W3C//DTD SVG 1.1 Tiny//EN" "http://www.w3.org/Graphics/SVG/1.1/DTD/svg11-tiny.dtd">
<svg version="1.1" baseProfile="tiny" id="Layer_1" xmlns="http://www.w3.org/2000/svg" xmlns:xlink="http://www.w3.org/1999/xlink"
	 x="0px" y="0px" width="18px" height="18px" viewBox="0 0 18 18" xml:space="preserve">
<path fill-rule="evenodd" fill="#498BB6" d="M11.98,14.92v1.01H6.02v-1.01H11.98z M11.98,12.779v1.011H6.02v-1.011H11.98z
	 M12.98,11.71V17H5.02v-5.29H12.98z M3.95,4.21v3.22h10.1V4.21h1.261C15.75,4.28,17,5.22,17,5.95v6.03c-0.13,0.47-1,1.81-1.689,1.81
	H14.05v-3.22H3.95v3.22H2.63C2.19,13.65,1,12.721,1,12.05v-6.1c0.06-0.67,1-1.74,1.76-1.74H3.95z M12.98,1v5.29H5.02V1H12.98z"/>
</svg>
