<svg xmlns="http://www.w3.org/2000/svg" width="23.84" height="31.244" viewBox="0 0 23.84 31.244"><defs><style>.a{fill:#498bb6;}.b{fill:#d8d7da;}.c{fill:#6aa2c7;}.d{fill:#fff;}</style></defs><path class="a" d="M243.15,0V6.707a5.14,5.14,0,0,1,0,10.28V31.244L252.5,19.416A12,12,0,0,0,243.15,0Z" transform="translate(-231.23)"/><path class="b" d="M248.26,109.54a5.13,5.13,0,0,0-5.11-5.14v10.28A5.131,5.131,0,0,0,248.26,109.54Z" transform="translate(-231.23 -97.693)"/><path class="c" d="M63.34,11.847a5.13,5.13,0,0,1,5.11-5.14V0A12,12,0,0,0,59.1,19.418l9.35,11.825V16.987A5.131,5.131,0,0,1,63.34,11.847Z" transform="translate(-56.53)"/><path class="d" d="M163.15,109.54a5.131,5.131,0,0,0,5.11,5.14V104.4A5.13,5.13,0,0,0,163.15,109.54Z" transform="translate(-156.34 -97.693)"/></svg>