<svg xmlns="http://www.w3.org/2000/svg" width="24.343" height="36.207" viewBox="0 0 24.343 36.207"><defs><style>.a{fill:#323a6b;}.b{fill:#555e9a;}.c{fill:#ff7b49;}</style></defs><path class="a" d="M166.967,0h-2.349V2.945a4,4,0,0,0,3.935,4.044H170.9V4.044A4,4,0,0,0,166.967,0Z" transform="translate(-158.73)"/><ellipse class="b" cx="4.746" cy="4.877" rx="4.746" ry="4.877" transform="translate(7.427 26.454)"/><path class="a" d="M255.885,373.907h0v9.753h0a4.879,4.879,0,0,0,0-9.753Z" transform="translate(-243.713 -347.453)"/><g transform="translate(11.139 1.987)"><path class="b" d="M242.949,40.4h-2.065V33.17a5.026,5.026,0,0,1,4.951-5.088h1.433V30.2h-1.433a2.93,2.93,0,0,0-2.886,2.965Z" transform="translate(-240.884 -28.082)"/></g><path class="b" d="M259.8,28.082a4.9,4.9,0,0,0-3.918,1.983V40.4h1.033V33.17A2.93,2.93,0,0,1,259.8,30.2h1.433V28.082H259.8Z" transform="translate(-243.712 -26.095)"/><path class="a" d="M145.205,133.212a4.693,4.693,0,0,0-3.713,1.845,4.693,4.693,0,0,0-3.713-1.845,4.879,4.879,0,0,0,0,9.753,4.693,4.693,0,0,0,3.713-1.845,4.693,4.693,0,0,0,3.713,1.845,4.879,4.879,0,0,0,0-9.753Z" transform="translate(-129.32 -123.787)"/><path class="b" d="M259.6,142.965a4.879,4.879,0,0,0,0-9.753,4.693,4.693,0,0,0-3.713,1.845h0v6.066h0A4.693,4.693,0,0,0,259.6,142.965Z" transform="translate(-243.712 -123.787)"/><path class="a" d="M145.205,293.675a4.693,4.693,0,0,0-3.713,1.845,4.693,4.693,0,0,0-3.713-1.845,4.879,4.879,0,0,0,0,9.754,4.693,4.693,0,0,0,3.713-1.845,4.693,4.693,0,0,0,3.713,1.845,4.879,4.879,0,0,0,0-9.754Z" transform="translate(-129.32 -272.898)"/><path class="b" d="M259.6,293.675a4.693,4.693,0,0,0-3.713,1.845h0v6.066h0a4.693,4.693,0,0,0,3.713,1.845,4.879,4.879,0,0,0,0-9.753Z" transform="translate(-243.712 -272.898)"/><path class="c" d="M299.56,213.444a4.879,4.879,0,1,0,4.746,4.877A4.818,4.818,0,0,0,299.56,213.444Z" transform="translate(-279.962 -198.343)"/><path class="a" d="M299.56,213.444a4.879,4.879,0,1,0,4.746,4.877A4.818,4.818,0,0,0,299.56,213.444Z" transform="translate(-279.962 -198.343)"/><path class="b" d="M83.839,213.444a4.879,4.879,0,1,0,4.746,4.877A4.818,4.818,0,0,0,83.839,213.444Z" transform="translate(-79.093 -198.343)"/><path class="a" d="M191.7,213.444a4.879,4.879,0,1,0,4.746,4.877A4.818,4.818,0,0,0,191.7,213.444Z" transform="translate(-179.527 -198.343)"/><path class="b" d="M260.63,218.321a4.818,4.818,0,0,0-4.746-4.877V223.2A4.818,4.818,0,0,0,260.63,218.321Z" transform="translate(-243.713 -198.343)"/></svg>