<svg xmlns="http://www.w3.org/2000/svg" width="30.509" height="30.509" viewBox="0 0 30.509 30.509"><defs><style>.a{fill:#22848d;}.b{fill:#2ab4c0;}</style></defs><path class="a" d="M10.99,25.653v2.653H16.3v3.316H10.99v2.653H16.3v3.316H10.99v2.653H16.3v3.979H9V23h7.3v2.653Z" transform="translate(-9 -13.715)"/><path class="b" d="M22,14V41.193h2.653V34.56h7.959v6.632h2.653V14Zm5.306,17.244H24.653V28.591h2.653Zm0-5.969H24.653V22.622h2.653Zm0-5.969H24.653V16.653h2.653Zm5.306,11.938H29.959V28.591h2.653Zm0-5.969H29.959V22.622h2.653Zm0-5.969H29.959V16.653h2.653Z" transform="translate(-13.378 -10.684)"/><path class="a" d="M44,26.67V45.46h7.3V30.6Zm4.643,14.81H45.99V38.827h2.653Zm0-5.969H45.99V32.858h2.653Z" transform="translate(-20.787 -14.951)"/><path class="b" d="M24,9H34.612v1.99H24Z" transform="translate(-14.051 -9)"/></svg>