<svg xmlns="http://www.w3.org/2000/svg" width="13.366" height="13.366" viewBox="0 0 13.366 13.366"><defs><style>.a{fill:#498bb6;}</style></defs><g transform="translate(0 0)"><path class="a" d="M13.051,5.161l-1.027-.223a5.591,5.591,0,0,0-.331-.8l.569-.885a.4.4,0,0,0-.054-.5l-1.6-1.6a.4.4,0,0,0-.5-.054l-.885.569a5.591,5.591,0,0,0-.8-.331L8.2.314A.4.4,0,0,0,7.814,0H5.551a.4.4,0,0,0-.39.314L4.938,1.342a5.591,5.591,0,0,0-.8.331L3.256,1.1a.4.4,0,0,0-.5.054l-1.6,1.6a.4.4,0,0,0-.054.5l.569.885a5.591,5.591,0,0,0-.331.8L.314,5.161A.4.4,0,0,0,0,5.551V7.814a.4.4,0,0,0,.314.39l1.027.223a5.591,5.591,0,0,0,.331.8L1.1,10.11a.4.4,0,0,0,.054.5l1.6,1.6a.4.4,0,0,0,.5.054l.885-.569a5.591,5.591,0,0,0,.8.331l.223,1.027a.4.4,0,0,0,.39.314H7.814a.4.4,0,0,0,.39-.314l.223-1.027a5.591,5.591,0,0,0,.8-.331l.885.569a.4.4,0,0,0,.5-.054l1.6-1.6a.4.4,0,0,0,.054-.5l-.569-.885a5.591,5.591,0,0,0,.331-.8L13.051,8.2a.4.4,0,0,0,.314-.39V5.551A.4.4,0,0,0,13.051,5.161ZM9.079,6.683a2.4,2.4,0,1,1-2.4-2.4A2.4,2.4,0,0,1,9.079,6.683Zm0,0" transform="translate(0 0)"/></g></svg>