<?xml version="1.0" encoding="utf-8"?>
<!-- Generator: Adobe Illustrator 16.0.3, SVG Export Plug-In . SVG Version: 6.00 Build 0)  -->
<!DOCTYPE svg PUBLIC "-//W3C//DTD SVG 1.1//EN" "http://www.w3.org/Graphics/SVG/1.1/DTD/svg11.dtd">
<svg version="1.1" id="Layer_1" xmlns="http://www.w3.org/2000/svg" xmlns:xlink="http://www.w3.org/1999/xlink" x="0px" y="0px"
	 width="15px" height="15px" viewBox="0 0 15 15" enable-background="new 0 0 15 15" xml:space="preserve">
<path fill-rule="evenodd" clip-rule="evenodd" fill="#2AB4C0" d="M2.57,8.63c0.17,0.05,0.34,0.22,0.34,0.33
	c0.39,1.59,1.12,4.83,1.12,4.94c0,0.33-0.34,0.439-0.51,0.439H0.5V8.63H2.57z M9.8,2.21c0,0.11-0.729,3.18-0.729,3.29
	c0,0.33,0.05,0.61,0.33,0.61c0.17,0,2.359-0.33,2.52-0.33c0.79,0,2.301,0.16,2.301,1.37C14.221,7.26,14,7.92,14,7.92
	c0,0.11,0.5,0.55,0.5,1.089c0,0.5-0.5,0.94-0.5,1.1c0,0.17,0.109,0.281,0.109,0.391c0.051,0.1,0.051,0.21,0.051,0.38
	c0,0.44-0.11,0.82-0.721,1.37c0.281,2.09-2.189,2.25-3.31,2.25l-2.91-0.05c-0.67-0.11-1.62-0.06-2.24-0.28
	c-0.39-1.859-1.29-5.49-1.29-5.6c0-0.16,0.28-0.271,0.45-0.49c0.28-0.379,0.39-0.82,0.67-1.149c0.45-0.55,0.9-0.99,1.23-1.48
	c0.73-1.1,1.24-2.47,1.739-3.51v-1.05c0.171-0.49,0.281-0.38,0.5-0.38C9.4,0.51,9.8,1.55,9.8,2.21z"/>
</svg>
