<svg xmlns="http://www.w3.org/2000/svg" width="107.274" height="106.96" viewBox="0 0 107.274 106.96"><defs><style>.a{fill:#f4ba3e;stroke:#d69e26;stroke-width:5px;}.b{fill:#fff;}</style></defs><g transform="translate(2.638 2.5)"><path class="a" d="M87.115,102.057H14.883A14.864,14.864,0,0,1,1.588,80.546L37.7,8.313a14.864,14.864,0,0,1,26.589,0L100.41,80.546A14.863,14.863,0,0,1,87.115,102.057Z" transform="translate(0 -0.097)"/><path class="b" d="M228.154,194.053a4.5,4.5,0,0,1,1.7-3.542,6.134,6.134,0,0,1,4.132-1.459,5.236,5.236,0,0,1,3.7,1.459,4.751,4.751,0,0,1,0,7.043,5.155,5.155,0,0,1-3.7,1.5,6.029,6.029,0,0,1-4.132-1.5A4.545,4.545,0,0,1,228.154,194.053Zm.546-48.97a3.956,3.956,0,0,1,1.445-3.279,5.809,5.809,0,0,1,3.742-1.156,4.313,4.313,0,0,1,3.375,1.2,4.666,4.666,0,0,1,1.077,3.232c0,4.436-.077,6.5-.227,16.537s-.227,13.2-.227,17.638a2.426,2.426,0,0,1-1.3,2.172,5.153,5.153,0,0,1-2.7.785q-4.1,0-4.1-2.957c0-4.435-.182-7.6-.546-17.638S228.7,149.519,228.7,145.083Z" transform="translate(-181.702 -112.648)"/></g></svg>