<svg 
 xmlns="http://www.w3.org/2000/svg"
 xmlns:xlink="http://www.w3.org/1999/xlink"
 width="13px" height="11px">
<path fill-rule="evenodd"  fill="rgb(232, 81, 100)"
 d="M12.184,11.000 L0.820,11.000 C0.090,11.000 -0.206,10.634 0.159,10.014 L5.841,0.488 C6.206,-0.133 6.799,-0.173 7.164,0.448 L12.845,10.034 C13.210,10.655 12.913,11.000 12.184,11.000 ZM7.348,3.300 C7.348,2.996 7.094,2.750 6.782,2.750 L6.217,2.750 C5.905,2.750 5.651,2.996 5.651,3.300 L5.651,6.600 C5.651,6.904 5.905,7.150 6.217,7.150 L6.782,7.150 C7.094,7.150 7.348,6.904 7.348,6.600 L7.348,3.300 ZM6.499,8.250 C6.032,8.250 5.651,8.619 5.651,9.075 C5.651,9.531 6.032,9.900 6.499,9.900 C6.967,9.900 7.348,9.531 7.348,9.075 C7.348,8.619 6.967,8.250 6.499,8.250 Z"/>
</svg>