<svg xmlns="http://www.w3.org/2000/svg" width="23" height="23" viewBox="0 0 23 23">
  <metadata><?xpacket begin="﻿" id="W5M0MpCehiHzreSzNTczkc9d"?>
<x:xmpmeta xmlns:x="adobe:ns:meta/" x:xmptk="Adobe XMP Core 5.6-c138 79.159824, 2016/09/14-01:09:01        ">
   <rdf:RDF xmlns:rdf="http://www.w3.org/1999/02/22-rdf-syntax-ns#">
      <rdf:Description rdf:about=""/>
   </rdf:RDF>
</x:xmpmeta>
                                                                                                    
                                                                                                    
                                                                                                    
                                                                                                    
                                                                                                    
                                                                                                    
                                                                                                    
                                                                                                    
                                                                                                    
                                                                                                    
                                                                                                    
                                                                                                    
                                                                                                    
                                                                                                    
                                                                                                    
                                                                                                    
                                                                                                    
                                                                                                    
                                                                                                    
                                                                                                    
                           
<?xpacket end="w"?></metadata>
<defs>
    <style>
      .cls-1 {
        fill: #da4453;
        fill-rule: evenodd;
      }
    </style>
  </defs>
  <path id="Forma_1" data-name="Forma 1" class="cls-1" d="M979.4,875.753a0.828,0.828,0,0,0-.828-0.828,0.769,0.769,0,0,0-.811.65v2.734a0.278,0.278,0,0,1-.243.279,0.241,0.241,0,0,1-.241-0.241v-4.663a0.827,0.827,0,0,0-.826-0.828,0.778,0.778,0,0,0-.82.693v4.7a0.245,0.245,0,1,1-.489,0v-6.261a0.83,0.83,0,0,0-.827-0.828,0.832,0.832,0,0,0-.828.816v6.237a0.248,0.248,0,0,1-.247.248,0.248,0.248,0,0,1-.248-0.248l0-3.39c0-.611,0-1.093,0-1.161v-0.009a0.775,0.775,0,0,0-.819-0.7,0.83,0.83,0,0,0-.828.828v6.839a0.241,0.241,0,0,1-.252.229,0.56,0.56,0,0,1-.375-0.2l-0.807-.806a0.967,0.967,0,0,0-.684-0.3,0.851,0.851,0,0,0-.611.258,1.056,1.056,0,0,0-.026,1.384l0,0.008a9.773,9.773,0,0,0,1.714,1.989,7.275,7.275,0,0,0,4.79,1.98c3.741,0,4.3-2.42,4.3-3.862Zm3.236-5.385A11.5,11.5,0,1,0,986,878.5,11.428,11.428,0,0,0,982.632,870.368ZM974.5,888.625A10.126,10.126,0,1,1,984.625,878.5,10.137,10.137,0,0,1,974.5,888.625Z" transform="translate(-963 -867)"/>
</svg>
