<svg 
 xmlns="http://www.w3.org/2000/svg"
 xmlns:xlink="http://www.w3.org/1999/xlink"
 width="14px" height="14px">
<path fill-rule="evenodd"  opacity="0.678" fill="rgb(116, 116, 116)"
 d="M6.999,14.000 C3.139,14.000 -0.001,10.859 -0.001,7.000 C-0.001,3.141 3.139,-0.000 6.999,-0.000 C10.857,-0.000 13.999,3.141 13.999,7.000 C13.999,10.859 10.857,14.000 6.999,14.000 ZM6.999,1.400 C3.911,1.400 1.399,3.913 1.399,7.000 C1.399,10.087 3.911,12.600 6.999,12.600 C10.086,12.600 12.599,10.087 12.599,7.000 C12.599,3.913 10.086,1.400 6.999,1.400 ZM8.679,9.800 L6.999,8.120 L5.319,9.800 L4.199,8.680 L5.879,7.000 L4.199,5.320 L5.319,4.200 L6.999,5.880 L8.679,4.200 L9.798,5.320 L8.119,7.000 L9.798,8.680 L8.679,9.800 Z"/>
</svg>