<svg 
 xmlns="http://www.w3.org/2000/svg"
 xmlns:xlink="http://www.w3.org/1999/xlink"
 width="19px" height="19px">
<path fill-rule="evenodd"  fill="rgb(37, 193, 153)"
 d="M17.161,17.374 L15.902,18.634 C15.676,18.858 15.018,18.999 14.998,18.999 C11.011,19.033 7.173,17.467 4.352,14.645 C1.522,11.817 -0.045,7.964 -0.002,3.965 C-0.002,3.963 0.143,3.323 0.368,3.100 L1.627,1.839 C2.089,1.378 2.974,1.169 3.594,1.376 L3.859,1.465 C4.479,1.671 5.126,2.355 5.299,2.985 L5.932,5.313 C6.105,5.944 5.874,6.841 5.413,7.303 L4.570,8.145 C5.396,11.205 7.796,13.604 10.855,14.431 L11.697,13.589 C12.158,13.128 13.058,12.897 13.689,13.068 L16.016,13.704 C16.645,13.874 17.329,14.522 17.537,15.142 L17.626,15.408 C17.831,16.028 17.623,16.913 17.161,17.374 ZM10.686,5.793 L13.204,8.312 L17.288,4.227 L18.999,5.937 L18.999,-0.001 L13.060,-0.001 L14.770,1.708 L10.686,5.793 Z"/>
</svg>