<svg xmlns="http://www.w3.org/2000/svg" width="12" height="12" viewBox="0 0 12 12"><defs><style>.a{fill:#fff;}</style></defs><g transform="translate(0 -0.001)"><g transform="translate(0 0.001)"><path class="a" d="M11.349,5.164H6.837V.652A.809.809,0,0,0,6,0a.809.809,0,0,0-.837.651V5.164H.651A.809.809,0,0,0,0,6a.809.809,0,0,0,.651.837H5.163V11.35A.809.809,0,0,0,6,12a.809.809,0,0,0,.837-.651V6.838h4.512A.809.809,0,0,0,12,6,.809.809,0,0,0,11.349,5.164Z" transform="translate(0 -0.001)"/></g></g></svg>