<svg xmlns="http://www.w3.org/2000/svg" width="28.09" height="20.066" viewBox="0 0 28.09 20.066">
  <g id="backspace" transform="translate(0 -29.591)">
    <g id="_5" transform="translate(0 29.591)">
      <path id="Path_5348" data-name="Path 5348" d="M27.087,49.657H8.024a1,1,0,0,1-.793-.391L.208,40.236a1,1,0,0,1,0-1.224l7.023-9.03a1,1,0,0,1,.793-.391H27.087a1,1,0,0,1,1,1v18.06A1,1,0,0,1,27.087,49.657ZM8.516,47.651H26.084V31.6H8.516L2.275,39.624Z" transform="translate(0 -29.591)"/>
      <path id="Path_5349" data-name="Path 5349" d="M98.406,82.908a1,1,0,0,1-.718-1.71l.006-.006,5.679-5.679a1.007,1.007,0,0,1,1.425,1.425l-5.679,5.679A1,1,0,0,1,98.406,82.908Z" transform="translate(-84.192 -69.032)"/>
      <path id="Path_5350" data-name="Path 5350" d="M104.1,82.908a1,1,0,0,1-.712-.291L97.7,76.938a1.007,1.007,0,0,1,1.425-1.425l5.679,5.679a1,1,0,0,1,.006,1.419l-.006.006a1,1,0,0,1-.712.291Z" transform="translate(-84.202 -69.032)"/>
    </g>
  </g>
</svg>
