<svg xmlns="http://www.w3.org/2000/svg" width="15.276" height="16.451" viewBox="0 0 15.276 16.451"><defs><style>.a{fill:#498bb6;}</style></defs><g transform="translate(-18.276)"><path class="a" d="M33.2,2.7a1.129,1.129,0,0,0-.826-.349H31.2V1.469A1.415,1.415,0,0,0,30.77.432,1.415,1.415,0,0,0,29.733,0h-.587a1.414,1.414,0,0,0-1.037.432,1.414,1.414,0,0,0-.432,1.037V2.35H24.152V1.469A1.414,1.414,0,0,0,23.72.432,1.414,1.414,0,0,0,22.683,0H22.1a1.415,1.415,0,0,0-1.037.432,1.415,1.415,0,0,0-.432,1.037V2.35H19.451a1.129,1.129,0,0,0-.826.349,1.129,1.129,0,0,0-.349.826V15.276a1.191,1.191,0,0,0,1.175,1.175H32.377a1.192,1.192,0,0,0,1.175-1.175V3.525A1.13,1.13,0,0,0,33.2,2.7Zm-4.351-1.23a.282.282,0,0,1,.294-.294h.587a.283.283,0,0,1,.294.294V4.113a.283.283,0,0,1-.294.294h-.587a.282.282,0,0,1-.294-.294Zm-7.05,0a.283.283,0,0,1,.294-.294h.587a.283.283,0,0,1,.294.294V4.113a.283.283,0,0,1-.294.294H22.1a.283.283,0,0,1-.294-.294ZM32.377,15.276H19.451v-9.4H32.377Z"/></g></svg>