<svg xmlns="http://www.w3.org/2000/svg" width="12.273" height="12.273" viewBox="0 0 12.273 12.273"><defs><style>.a{fill:#798c8d;stroke-linecap:round;}.b,.c{stroke:none;}.c{fill:#e3ecee;}</style></defs><g class="a" transform="translate(6.137 1.707) rotate(45)"><path class="b" d="M 7.221282482147217 7.221282482147217 L 6.971282482147217 7.221282482147217 L 2.671584979907493e-06 7.221282482147217 L -0.6035473346710205 7.221282482147217 L -0.1767773330211639 6.794502735137939 L 6.794502735137939 -0.1767773330211639 L 7.221282482147217 -0.6035473346710205 L 7.221282482147217 2.671584979907493e-06 L 7.221282482147217 6.971282482147217 L 7.221282482147217 7.221282482147217 Z"/><path class="c" d="M 6.971282482147217 2.86102294921875e-06 L 2.86102294921875e-06 6.971282482147217 L 6.971282482147217 6.971282482147217 L 6.971282482147217 2.86102294921875e-06 M 7.471282482147217 -1.207107067108154 L 7.471282482147217 2.86102294921875e-06 L 7.471282482147217 6.971282482147217 L 7.471282482147217 7.471282482147217 L 6.971282482147217 7.471282482147217 L 2.86102294921875e-06 7.471282482147217 L -1.207107067108154 7.471282482147217 L -0.3535470962524414 6.617732524871826 L 6.617732524871826 -0.3535470962524414 L 7.471282482147217 -1.207107067108154 Z"/></g></svg>