<svg xmlns="http://www.w3.org/2000/svg" width="19.046" height="22.634" viewBox="0 0 19.046 22.634"><defs><style>.a{fill:#323a6b;}</style></defs><path class="a" d="M40.849,22.634c.407-1.315,1.736-5.894,1.736-7.582V9.192a1.414,1.414,0,1,0-2.828,0v2.5a.266.266,0,1,1-.532,0V7.785a1.414,1.414,0,1,0-2.828,0v2.784a.266.266,0,1,1-.532,0v-3.9a1.414,1.414,0,1,0-2.828,0V9.449a.266.266,0,0,1-.532,0V1.432a1.414,1.414,0,1,0-2.828,0V13.847a.266.266,0,0,1-.466.175L25.9,10.233l-.039-.04a1.433,1.433,0,0,0-.98-.393h-.009a1.413,1.413,0,0,0-.993.409c-.326.326-.582.95.055,2.069.967,1.7,2.023,3.308,2.959,4.734.7,1.061,1.353,2.063,1.843,2.908.313.541.967,1.961,1.328,2.713H40.849Z" transform="translate(-23.539)"/></svg>