<svg xmlns="http://www.w3.org/2000/svg" width="19" height="19" viewBox="0 0 19 19"><defs><style>.a{fill:#498bb6;}</style></defs><g transform="translate(0 -15.001)"><g transform="translate(0 15.001)"><path class="a" d="M9.5,0A9.5,9.5,0,1,0,19,9.5,9.511,9.511,0,0,0,9.5,0Zm0,17.452A7.952,7.952,0,1,1,17.452,9.5,7.962,7.962,0,0,1,9.5,17.453Zm4.907-10.4a.506.506,0,0,1-.129.7L9.693,10.93a.506.506,0,0,1-.794-.417V3.732a.506.506,0,1,1,1.012,0V9.548L13.7,6.929A.507.507,0,0,1,14.407,7.057Z" transform="translate(0 -0.001)"/></g></g></svg>