<svg xmlns="http://www.w3.org/2000/svg" width="15.031" height="15.031" viewBox="0 0 15.031 15.031"><defs><style>.a{fill:#bcbcbc;}</style></defs><path class="a" d="M10,7.516l4.65-4.65a1.315,1.315,0,0,0,0-1.86l-.62-.62a1.315,1.315,0,0,0-1.86,0l-4.65,4.65L2.866.385a1.315,1.315,0,0,0-1.86,0l-.621.62a1.315,1.315,0,0,0,0,1.86L5.037,7.516l-4.65,4.65a1.315,1.315,0,0,0,0,1.86l.62.62a1.315,1.315,0,0,0,1.86,0L7.516,10l4.65,4.65a1.315,1.315,0,0,0,1.86,0l.62-.62a1.315,1.315,0,0,0,0-1.86Zm0,0" transform="translate(0 0)"/></svg>