<svg xmlns="http://www.w3.org/2000/svg" width="38" height="38" viewBox="0 0 38 38"><defs><style>.a{fill:#37531c;}.b{fill:#fff;}</style></defs><rect class="a" width="38" height="38" rx="3"/><g transform="translate(9 -6.989)"><g transform="translate(0 15.989)"><path class="b" d="M20.09,18.583H11.665V16.638a.646.646,0,0,0-.235-.5A.637.637,0,0,0,10.9,16L.529,17.946A.646.646,0,0,0,0,18.583V32.84a.647.647,0,0,0,.529.636L10.9,35.421a.61.61,0,0,0,.119.012.648.648,0,0,0,.648-.648V32.84H20.09a.648.648,0,0,0,.648-.648V19.231A.648.648,0,0,0,20.09,18.583ZM8.912,27.877a.648.648,0,1,1-.975.853L6.053,26.577,4.4,28.7a.649.649,0,0,1-1.024-.8l1.807-2.323L3.4,23.546a.648.648,0,0,1,.976-.853l1.618,1.848,1.92-2.468a.648.648,0,0,1,1.023.8L6.863,25.535Zm10.53,3.667H11.665v-1.3H13.61a.648.648,0,1,0,0-1.3H11.665v-1.3H13.61a.648.648,0,1,0,0-1.3H11.665v-1.3H13.61a.648.648,0,1,0,0-1.3H11.665v-1.3H13.61a.648.648,0,1,0,0-1.3H11.665v-1.3h7.777Z" transform="translate(0 -15.989)"/></g><g transform="translate(15.554 21.175)"><path class="b" d="M385.944,144.011h-1.3a.648.648,0,1,0,0,1.3h1.3a.648.648,0,1,0,0-1.3Z" transform="translate(-384 -144.011)"/></g><g transform="translate(15.554 23.767)"><path class="b" d="M385.944,208.011h-1.3a.648.648,0,1,0,0,1.3h1.3a.648.648,0,1,0,0-1.3Z" transform="translate(-384 -208.011)"/></g><g transform="translate(15.554 26.36)"><path class="b" d="M385.944,272.011h-1.3a.648.648,0,0,0,0,1.3h1.3a.648.648,0,1,0,0-1.3Z" transform="translate(-384 -272.011)"/></g><g transform="translate(15.554 28.952)"><path class="b" d="M385.944,336.011h-1.3a.648.648,0,1,0,0,1.3h1.3a.648.648,0,1,0,0-1.3Z" transform="translate(-384 -336.011)"/></g></g></svg>