<svg xmlns="http://www.w3.org/2000/svg" width="22.756" height="19.092" viewBox="0 0 22.756 19.092"><defs><style>.a,.b{fill:#ce3c45;}.b{stroke:#fafafa;stroke-width:0.5px;}.c{stroke:none;}.d{fill:none;}</style></defs><g transform="translate(0 1.559)"><path class="a" d="M174.179,170.667a3.512,3.512,0,1,0,3.512,3.512A3.515,3.515,0,0,0,174.179,170.667Z" transform="translate(-162.801 -166.399)"/><path class="a" d="M11.378,74.667A12.234,12.234,0,0,0,0,82.447a12.209,12.209,0,0,0,22.756,0A12.229,12.229,0,0,0,11.378,74.667Zm0,12.967a5.187,5.187,0,1,1,5.172-5.187A5.181,5.181,0,0,1,11.378,87.634Z" transform="translate(0 -74.667)"/></g><g class="b" transform="translate(19.432 0) rotate(45)"><rect class="c" width="2" height="25" rx="1"/><rect class="d" x="0.25" y="0.25" width="1.5" height="24.5" rx="0.75"/></g></svg>