<svg xmlns="http://www.w3.org/2000/svg" width="25.755" height="17.561" viewBox="0 0 25.755 17.561"><defs><style>.a{fill:#69B140;}</style></defs><g transform="translate(0 0)"><path class="a" d="M174.179,170.667a3.512,3.512,0,1,0,3.512,3.512A3.515,3.515,0,0,0,174.179,170.667Z" transform="translate(-161.301 -165.399)"/><path class="a" d="M12.878,74.667A13.846,13.846,0,0,0,0,83.447a13.834,13.834,0,0,0,25.756,0A13.84,13.84,0,0,0,12.878,74.667Zm0,14.634a5.854,5.854,0,1,1,5.854-5.853A5.856,5.856,0,0,1,12.878,89.3Z" transform="translate(0 -74.667)"/></g></svg>