<svg xmlns="http://www.w3.org/2000/svg" width="24.006" height="24.006" viewBox="0 0 24.006 24.006"><defs><style>.a{fill:#498bb6;}.b{fill:#fff;}</style></defs><path class="a" d="M90,150h15.567v1.407H90Z" transform="translate(-85.78 -142.967)"/><path class="a" d="M2.813,8.44V6.33a.7.7,0,0,1,.7-.7H20.49a.7.7,0,0,1,.7.7V8.44h2.813V4.923a2.112,2.112,0,0,0-2.11-2.11H9.823A3.576,3.576,0,0,0,6.33,0H2.11A2.112,2.112,0,0,0,0,2.11V8.44Z"/><g transform="translate(0 9.94)"><path class="a" d="M0,212v11.956a2.112,2.112,0,0,0,2.11,2.11H21.9a2.112,2.112,0,0,0,2.11-2.11V212Z" transform="translate(0 -212)"/></g><g transform="translate(7.268 13.02)"><g transform="translate(0 0)"><path class="b" d="M4.795,1.7V.282A.282.282,0,0,1,5.286.093L7.82,2.91a.282.282,0,0,1,.009.366l-2.535,3.1a.282.282,0,0,1-.5-.178v-1.4C2.57,4.865,1.181,5.816.556,7.693a.282.282,0,0,1-.267.192.273.273,0,0,1-.045,0A.282.282,0,0,1,.007,7.6C.007,4.288,2,1.851,4.795,1.7Z" transform="translate(-0.007 0)"/></g></g></svg>