<svg xmlns="http://www.w3.org/2000/svg" xmlns:xlink="http://www.w3.org/1999/xlink" width="159.756" height="13.905" viewBox="0 0 159.756 13.905"><defs><style>.a{fill:none;}.b{clip-path:url(#a);}.c{fill:#ccdeea;}</style><clipPath id="a"><rect class="a" width="159.756" height="13.905"/></clipPath></defs><g class="b"><g transform="translate(-752 -299.601)"><g transform="translate(752 299.601)"><g transform="translate(12.479 4.457)"><path class="c" d="M.713,20.057a.713.713,0,0,0,.713-.713V15.779a.713.713,0,1,0-1.426,0v3.565A.713.713,0,0,0,.713,20.057Z" transform="translate(0 -15.066)"/></g><g transform="translate(10.399 2.674)"><path class="c" d="M7.743,17.6a.713.713,0,0,0,.713-.713V9.751a.713.713,0,0,0-1.426,0v7.131A.713.713,0,0,0,7.743,17.6Z" transform="translate(-7.03 -9.038)"/></g><g transform="translate(8.319 3.566)"><path class="c" d="M14.773,18.826a.713.713,0,0,0,.713-.713V12.765a.713.713,0,0,0-1.426,0v5.348A.713.713,0,0,0,14.773,18.826Z" transform="translate(-14.06 -12.052)"/></g><g transform="translate(6.24 1.783)"><path class="c" d="M21.8,16.366a.713.713,0,0,0,.713-.713V6.739a.713.713,0,0,0-1.426,0v8.914A.713.713,0,0,0,21.8,16.366Z" transform="translate(-21.09 -6.026)"/></g><g transform="translate(4.16)"><path class="c" d="M28.832,13.905a.713.713,0,0,0,.713-.713V.713a.713.713,0,0,0-1.426,0V13.192A.713.713,0,0,0,28.832,13.905Z" transform="translate(-28.119)"/></g><g transform="translate(2.08 2.674)"><path class="c" d="M35.864,17.6a.713.713,0,0,0,.713-.713V9.751a.713.713,0,0,0-1.426,0v7.131A.713.713,0,0,0,35.864,17.6Z" transform="translate(-35.151 -9.038)"/></g><g transform="translate(0 5.348)"><path class="c" d="M42.893,21.287a.713.713,0,0,0,.713-.713V18.791a.713.713,0,1,0-1.426,0v1.783A.713.713,0,0,0,42.893,21.287Z" transform="translate(-42.18 -18.078)"/></g></g><g transform="translate(766.57 299.601)"><g transform="translate(12.479 4.457)"><path class="c" d="M.713,20.057a.713.713,0,0,0,.713-.713V15.779a.713.713,0,1,0-1.426,0v3.565A.713.713,0,0,0,.713,20.057Z" transform="translate(0 -15.066)"/></g><g transform="translate(10.399 2.674)"><path class="c" d="M7.743,17.6a.713.713,0,0,0,.713-.713V9.751a.713.713,0,0,0-1.426,0v7.131A.713.713,0,0,0,7.743,17.6Z" transform="translate(-7.03 -9.038)"/></g><g transform="translate(8.319 3.566)"><path class="c" d="M14.773,18.826a.713.713,0,0,0,.713-.713V12.765a.713.713,0,0,0-1.426,0v5.348A.713.713,0,0,0,14.773,18.826Z" transform="translate(-14.06 -12.052)"/></g><g transform="translate(6.24 1.783)"><path class="c" d="M21.8,16.366a.713.713,0,0,0,.713-.713V6.739a.713.713,0,0,0-1.426,0v8.914A.713.713,0,0,0,21.8,16.366Z" transform="translate(-21.09 -6.026)"/></g><g transform="translate(4.16)"><path class="c" d="M28.832,13.905a.713.713,0,0,0,.713-.713V.713a.713.713,0,0,0-1.426,0V13.192A.713.713,0,0,0,28.832,13.905Z" transform="translate(-28.119)"/></g><g transform="translate(2.08 2.674)"><path class="c" d="M35.864,17.6a.713.713,0,0,0,.713-.713V9.751a.713.713,0,0,0-1.426,0v7.131A.713.713,0,0,0,35.864,17.6Z" transform="translate(-35.151 -9.038)"/></g><g transform="translate(0 5.348)"><path class="c" d="M42.893,21.287a.713.713,0,0,0,.713-.713V18.791a.713.713,0,1,0-1.426,0v1.783A.713.713,0,0,0,42.893,21.287Z" transform="translate(-42.18 -18.078)"/></g></g><g transform="translate(781.14 299.601)"><g transform="translate(12.479 4.457)"><path class="c" d="M.713,20.057a.713.713,0,0,0,.713-.713V15.779a.713.713,0,1,0-1.426,0v3.565A.713.713,0,0,0,.713,20.057Z" transform="translate(0 -15.066)"/></g><g transform="translate(10.399 2.674)"><path class="c" d="M7.743,17.6a.713.713,0,0,0,.713-.713V9.751a.713.713,0,0,0-1.426,0v7.131A.713.713,0,0,0,7.743,17.6Z" transform="translate(-7.03 -9.038)"/></g><g transform="translate(8.319 3.566)"><path class="c" d="M14.773,18.826a.713.713,0,0,0,.713-.713V12.765a.713.713,0,0,0-1.426,0v5.348A.713.713,0,0,0,14.773,18.826Z" transform="translate(-14.06 -12.052)"/></g><g transform="translate(6.24 1.783)"><path class="c" d="M21.8,16.366a.713.713,0,0,0,.713-.713V6.739a.713.713,0,0,0-1.426,0v8.914A.713.713,0,0,0,21.8,16.366Z" transform="translate(-21.09 -6.026)"/></g><g transform="translate(4.16)"><path class="c" d="M28.832,13.905a.713.713,0,0,0,.713-.713V.713a.713.713,0,0,0-1.426,0V13.192A.713.713,0,0,0,28.832,13.905Z" transform="translate(-28.119)"/></g><g transform="translate(2.08 2.674)"><path class="c" d="M35.864,17.6a.713.713,0,0,0,.713-.713V9.751a.713.713,0,0,0-1.426,0v7.131A.713.713,0,0,0,35.864,17.6Z" transform="translate(-35.151 -9.038)"/></g><g transform="translate(0 5.348)"><path class="c" d="M42.893,21.287a.713.713,0,0,0,.713-.713V18.791a.713.713,0,1,0-1.426,0v1.783A.713.713,0,0,0,42.893,21.287Z" transform="translate(-42.18 -18.078)"/></g></g><g transform="translate(795.71 299.601)"><g transform="translate(0 4.457)"><path class="c" d="M.713,20.057A.713.713,0,0,1,0,19.344V15.779a.713.713,0,1,1,1.426,0v3.565A.713.713,0,0,1,.713,20.057Z" transform="translate(0 -15.066)"/></g><g transform="translate(2.08 2.674)"><path class="c" d="M7.743,17.6a.713.713,0,0,1-.713-.713V9.751a.713.713,0,0,1,1.426,0v7.131A.713.713,0,0,1,7.743,17.6Z" transform="translate(-7.03 -9.038)"/></g><g transform="translate(4.16 3.566)"><path class="c" d="M14.773,18.826a.713.713,0,0,1-.713-.713V12.765a.713.713,0,0,1,1.426,0v5.348A.713.713,0,0,1,14.773,18.826Z" transform="translate(-14.06 -12.052)"/></g><g transform="translate(6.24 1.783)"><path class="c" d="M21.8,16.366a.713.713,0,0,1-.713-.713V6.739a.713.713,0,1,1,1.426,0v8.914A.713.713,0,0,1,21.8,16.366Z" transform="translate(-21.09 -6.026)"/></g><g transform="translate(8.319)"><path class="c" d="M28.832,13.905a.713.713,0,0,1-.713-.713V.713a.713.713,0,0,1,1.426,0V13.192A.713.713,0,0,1,28.832,13.905Z" transform="translate(-28.119)"/></g><g transform="translate(10.4 2.674)"><path class="c" d="M35.864,17.6a.713.713,0,0,1-.713-.713V9.751a.713.713,0,0,1,1.426,0v7.131A.713.713,0,0,1,35.864,17.6Z" transform="translate(-35.151 -9.038)"/></g><g transform="translate(12.479 5.349)"><path class="c" d="M42.893,21.287a.713.713,0,0,1-.713-.713V18.791a.713.713,0,1,1,1.426,0v1.783A.713.713,0,0,1,42.893,21.287Z" transform="translate(-42.18 -18.078)"/></g></g><g transform="translate(810.281 299.601)"><g transform="translate(12.479 4.457)"><path class="c" d="M.713,20.057a.713.713,0,0,0,.713-.713V15.779a.713.713,0,1,0-1.426,0v3.565A.713.713,0,0,0,.713,20.057Z" transform="translate(0 -15.066)"/></g><g transform="translate(10.399 2.674)"><path class="c" d="M7.743,17.6a.713.713,0,0,0,.713-.713V9.751a.713.713,0,0,0-1.426,0v7.131A.713.713,0,0,0,7.743,17.6Z" transform="translate(-7.03 -9.038)"/></g><g transform="translate(8.319 3.566)"><path class="c" d="M14.773,18.826a.713.713,0,0,0,.713-.713V12.765a.713.713,0,0,0-1.426,0v5.348A.713.713,0,0,0,14.773,18.826Z" transform="translate(-14.06 -12.052)"/></g><g transform="translate(6.24 1.783)"><path class="c" d="M21.8,16.366a.713.713,0,0,0,.713-.713V6.739a.713.713,0,0,0-1.426,0v8.914A.713.713,0,0,0,21.8,16.366Z" transform="translate(-21.09 -6.026)"/></g><g transform="translate(4.16)"><path class="c" d="M28.832,13.905a.713.713,0,0,0,.713-.713V.713a.713.713,0,0,0-1.426,0V13.192A.713.713,0,0,0,28.832,13.905Z" transform="translate(-28.119)"/></g><g transform="translate(2.08 2.674)"><path class="c" d="M35.864,17.6a.713.713,0,0,0,.713-.713V9.751a.713.713,0,0,0-1.426,0v7.131A.713.713,0,0,0,35.864,17.6Z" transform="translate(-35.151 -9.038)"/></g><g transform="translate(0 5.348)"><path class="c" d="M42.893,21.287a.713.713,0,0,0,.713-.713V18.791a.713.713,0,1,0-1.426,0v1.783A.713.713,0,0,0,42.893,21.287Z" transform="translate(-42.18 -18.078)"/></g></g><g transform="translate(824.851 299.601)"><g transform="translate(12.479 4.457)"><path class="c" d="M.713,20.057a.713.713,0,0,0,.713-.713V15.779a.713.713,0,1,0-1.426,0v3.565A.713.713,0,0,0,.713,20.057Z" transform="translate(0 -15.066)"/></g><g transform="translate(10.399 2.674)"><path class="c" d="M7.743,17.6a.713.713,0,0,0,.713-.713V9.751a.713.713,0,0,0-1.426,0v7.131A.713.713,0,0,0,7.743,17.6Z" transform="translate(-7.03 -9.038)"/></g><g transform="translate(8.319 3.566)"><path class="c" d="M14.773,18.826a.713.713,0,0,0,.713-.713V12.765a.713.713,0,0,0-1.426,0v5.348A.713.713,0,0,0,14.773,18.826Z" transform="translate(-14.06 -12.052)"/></g><g transform="translate(6.24 1.783)"><path class="c" d="M21.8,16.366a.713.713,0,0,0,.713-.713V6.739a.713.713,0,0,0-1.426,0v8.914A.713.713,0,0,0,21.8,16.366Z" transform="translate(-21.09 -6.026)"/></g><g transform="translate(4.16)"><path class="c" d="M28.832,13.905a.713.713,0,0,0,.713-.713V.713a.713.713,0,0,0-1.426,0V13.192A.713.713,0,0,0,28.832,13.905Z" transform="translate(-28.119)"/></g><g transform="translate(2.08 2.674)"><path class="c" d="M35.864,17.6a.713.713,0,0,0,.713-.713V9.751a.713.713,0,0,0-1.426,0v7.131A.713.713,0,0,0,35.864,17.6Z" transform="translate(-35.151 -9.038)"/></g><g transform="translate(0 5.348)"><path class="c" d="M42.893,21.287a.713.713,0,0,0,.713-.713V18.791a.713.713,0,1,0-1.426,0v1.783A.713.713,0,0,0,42.893,21.287Z" transform="translate(-42.18 -18.078)"/></g></g></g><g transform="translate(-664 -299.601)"><g transform="translate(752 299.601)"><g transform="translate(12.479 4.457)"><path class="c" d="M.713,20.057a.713.713,0,0,0,.713-.713V15.779a.713.713,0,1,0-1.426,0v3.565A.713.713,0,0,0,.713,20.057Z" transform="translate(0 -15.066)"/></g><g transform="translate(10.399 2.674)"><path class="c" d="M7.743,17.6a.713.713,0,0,0,.713-.713V9.751a.713.713,0,0,0-1.426,0v7.131A.713.713,0,0,0,7.743,17.6Z" transform="translate(-7.03 -9.038)"/></g><g transform="translate(8.319 3.566)"><path class="c" d="M14.773,18.826a.713.713,0,0,0,.713-.713V12.765a.713.713,0,0,0-1.426,0v5.348A.713.713,0,0,0,14.773,18.826Z" transform="translate(-14.06 -12.052)"/></g><g transform="translate(6.24 1.783)"><path class="c" d="M21.8,16.366a.713.713,0,0,0,.713-.713V6.739a.713.713,0,0,0-1.426,0v8.914A.713.713,0,0,0,21.8,16.366Z" transform="translate(-21.09 -6.026)"/></g><g transform="translate(4.16)"><path class="c" d="M28.832,13.905a.713.713,0,0,0,.713-.713V.713a.713.713,0,0,0-1.426,0V13.192A.713.713,0,0,0,28.832,13.905Z" transform="translate(-28.119)"/></g><g transform="translate(2.08 2.674)"><path class="c" d="M35.864,17.6a.713.713,0,0,0,.713-.713V9.751a.713.713,0,0,0-1.426,0v7.131A.713.713,0,0,0,35.864,17.6Z" transform="translate(-35.151 -9.038)"/></g><g transform="translate(0 5.348)"><path class="c" d="M42.893,21.287a.713.713,0,0,0,.713-.713V18.791a.713.713,0,1,0-1.426,0v1.783A.713.713,0,0,0,42.893,21.287Z" transform="translate(-42.18 -18.078)"/></g></g><g transform="translate(766.57 299.601)"><g transform="translate(12.479 4.457)"><path class="c" d="M.713,20.057a.713.713,0,0,0,.713-.713V15.779a.713.713,0,1,0-1.426,0v3.565A.713.713,0,0,0,.713,20.057Z" transform="translate(0 -15.066)"/></g><g transform="translate(10.399 2.674)"><path class="c" d="M7.743,17.6a.713.713,0,0,0,.713-.713V9.751a.713.713,0,0,0-1.426,0v7.131A.713.713,0,0,0,7.743,17.6Z" transform="translate(-7.03 -9.038)"/></g><g transform="translate(8.319 3.566)"><path class="c" d="M14.773,18.826a.713.713,0,0,0,.713-.713V12.765a.713.713,0,0,0-1.426,0v5.348A.713.713,0,0,0,14.773,18.826Z" transform="translate(-14.06 -12.052)"/></g><g transform="translate(6.24 1.783)"><path class="c" d="M21.8,16.366a.713.713,0,0,0,.713-.713V6.739a.713.713,0,0,0-1.426,0v8.914A.713.713,0,0,0,21.8,16.366Z" transform="translate(-21.09 -6.026)"/></g><g transform="translate(4.16)"><path class="c" d="M28.832,13.905a.713.713,0,0,0,.713-.713V.713a.713.713,0,0,0-1.426,0V13.192A.713.713,0,0,0,28.832,13.905Z" transform="translate(-28.119)"/></g><g transform="translate(2.08 2.674)"><path class="c" d="M35.864,17.6a.713.713,0,0,0,.713-.713V9.751a.713.713,0,0,0-1.426,0v7.131A.713.713,0,0,0,35.864,17.6Z" transform="translate(-35.151 -9.038)"/></g><g transform="translate(0 5.348)"><path class="c" d="M42.893,21.287a.713.713,0,0,0,.713-.713V18.791a.713.713,0,1,0-1.426,0v1.783A.713.713,0,0,0,42.893,21.287Z" transform="translate(-42.18 -18.078)"/></g></g><g transform="translate(781.14 299.601)"><g transform="translate(12.479 4.457)"><path class="c" d="M.713,20.057a.713.713,0,0,0,.713-.713V15.779a.713.713,0,1,0-1.426,0v3.565A.713.713,0,0,0,.713,20.057Z" transform="translate(0 -15.066)"/></g><g transform="translate(10.399 2.674)"><path class="c" d="M7.743,17.6a.713.713,0,0,0,.713-.713V9.751a.713.713,0,0,0-1.426,0v7.131A.713.713,0,0,0,7.743,17.6Z" transform="translate(-7.03 -9.038)"/></g><g transform="translate(8.319 3.566)"><path class="c" d="M14.773,18.826a.713.713,0,0,0,.713-.713V12.765a.713.713,0,0,0-1.426,0v5.348A.713.713,0,0,0,14.773,18.826Z" transform="translate(-14.06 -12.052)"/></g><g transform="translate(6.24 1.783)"><path class="c" d="M21.8,16.366a.713.713,0,0,0,.713-.713V6.739a.713.713,0,0,0-1.426,0v8.914A.713.713,0,0,0,21.8,16.366Z" transform="translate(-21.09 -6.026)"/></g><g transform="translate(4.16)"><path class="c" d="M28.832,13.905a.713.713,0,0,0,.713-.713V.713a.713.713,0,0,0-1.426,0V13.192A.713.713,0,0,0,28.832,13.905Z" transform="translate(-28.119)"/></g><g transform="translate(2.08 2.674)"><path class="c" d="M35.864,17.6a.713.713,0,0,0,.713-.713V9.751a.713.713,0,0,0-1.426,0v7.131A.713.713,0,0,0,35.864,17.6Z" transform="translate(-35.151 -9.038)"/></g><g transform="translate(0 5.348)"><path class="c" d="M42.893,21.287a.713.713,0,0,0,.713-.713V18.791a.713.713,0,1,0-1.426,0v1.783A.713.713,0,0,0,42.893,21.287Z" transform="translate(-42.18 -18.078)"/></g></g><g transform="translate(795.71 299.601)"><g transform="translate(0 4.457)"><path class="c" d="M.713,20.057A.713.713,0,0,1,0,19.344V15.779a.713.713,0,1,1,1.426,0v3.565A.713.713,0,0,1,.713,20.057Z" transform="translate(0 -15.066)"/></g><g transform="translate(2.08 2.674)"><path class="c" d="M7.743,17.6a.713.713,0,0,1-.713-.713V9.751a.713.713,0,0,1,1.426,0v7.131A.713.713,0,0,1,7.743,17.6Z" transform="translate(-7.03 -9.038)"/></g><g transform="translate(4.16 3.566)"><path class="c" d="M14.773,18.826a.713.713,0,0,1-.713-.713V12.765a.713.713,0,0,1,1.426,0v5.348A.713.713,0,0,1,14.773,18.826Z" transform="translate(-14.06 -12.052)"/></g><g transform="translate(6.24 1.783)"><path class="c" d="M21.8,16.366a.713.713,0,0,1-.713-.713V6.739a.713.713,0,1,1,1.426,0v8.914A.713.713,0,0,1,21.8,16.366Z" transform="translate(-21.09 -6.026)"/></g><g transform="translate(8.319)"><path class="c" d="M28.832,13.905a.713.713,0,0,1-.713-.713V.713a.713.713,0,0,1,1.426,0V13.192A.713.713,0,0,1,28.832,13.905Z" transform="translate(-28.119)"/></g><g transform="translate(10.4 2.674)"><path class="c" d="M35.864,17.6a.713.713,0,0,1-.713-.713V9.751a.713.713,0,0,1,1.426,0v7.131A.713.713,0,0,1,35.864,17.6Z" transform="translate(-35.151 -9.038)"/></g><g transform="translate(12.479 5.349)"><path class="c" d="M42.893,21.287a.713.713,0,0,1-.713-.713V18.791a.713.713,0,1,1,1.426,0v1.783A.713.713,0,0,1,42.893,21.287Z" transform="translate(-42.18 -18.078)"/></g></g><g transform="translate(810.281 299.601)"><g transform="translate(12.479 4.457)"><path class="c" d="M.713,20.057a.713.713,0,0,0,.713-.713V15.779a.713.713,0,1,0-1.426,0v3.565A.713.713,0,0,0,.713,20.057Z" transform="translate(0 -15.066)"/></g><g transform="translate(10.399 2.674)"><path class="c" d="M7.743,17.6a.713.713,0,0,0,.713-.713V9.751a.713.713,0,0,0-1.426,0v7.131A.713.713,0,0,0,7.743,17.6Z" transform="translate(-7.03 -9.038)"/></g><g transform="translate(8.319 3.566)"><path class="c" d="M14.773,18.826a.713.713,0,0,0,.713-.713V12.765a.713.713,0,0,0-1.426,0v5.348A.713.713,0,0,0,14.773,18.826Z" transform="translate(-14.06 -12.052)"/></g><g transform="translate(6.24 1.783)"><path class="c" d="M21.8,16.366a.713.713,0,0,0,.713-.713V6.739a.713.713,0,0,0-1.426,0v8.914A.713.713,0,0,0,21.8,16.366Z" transform="translate(-21.09 -6.026)"/></g><g transform="translate(4.16)"><path class="c" d="M28.832,13.905a.713.713,0,0,0,.713-.713V.713a.713.713,0,0,0-1.426,0V13.192A.713.713,0,0,0,28.832,13.905Z" transform="translate(-28.119)"/></g><g transform="translate(2.08 2.674)"><path class="c" d="M35.864,17.6a.713.713,0,0,0,.713-.713V9.751a.713.713,0,0,0-1.426,0v7.131A.713.713,0,0,0,35.864,17.6Z" transform="translate(-35.151 -9.038)"/></g><g transform="translate(0 5.348)"><path class="c" d="M42.893,21.287a.713.713,0,0,0,.713-.713V18.791a.713.713,0,1,0-1.426,0v1.783A.713.713,0,0,0,42.893,21.287Z" transform="translate(-42.18 -18.078)"/></g></g><g transform="translate(824.851 299.601)"><g transform="translate(12.479 4.457)"><path class="c" d="M.713,20.057a.713.713,0,0,0,.713-.713V15.779a.713.713,0,1,0-1.426,0v3.565A.713.713,0,0,0,.713,20.057Z" transform="translate(0 -15.066)"/></g><g transform="translate(10.399 2.674)"><path class="c" d="M7.743,17.6a.713.713,0,0,0,.713-.713V9.751a.713.713,0,0,0-1.426,0v7.131A.713.713,0,0,0,7.743,17.6Z" transform="translate(-7.03 -9.038)"/></g><g transform="translate(8.319 3.566)"><path class="c" d="M14.773,18.826a.713.713,0,0,0,.713-.713V12.765a.713.713,0,0,0-1.426,0v5.348A.713.713,0,0,0,14.773,18.826Z" transform="translate(-14.06 -12.052)"/></g><g transform="translate(6.24 1.783)"><path class="c" d="M21.8,16.366a.713.713,0,0,0,.713-.713V6.739a.713.713,0,0,0-1.426,0v8.914A.713.713,0,0,0,21.8,16.366Z" transform="translate(-21.09 -6.026)"/></g><g transform="translate(4.16)"><path class="c" d="M28.832,13.905a.713.713,0,0,0,.713-.713V.713a.713.713,0,0,0-1.426,0V13.192A.713.713,0,0,0,28.832,13.905Z" transform="translate(-28.119)"/></g><g transform="translate(2.08 2.674)"><path class="c" d="M35.864,17.6a.713.713,0,0,0,.713-.713V9.751a.713.713,0,0,0-1.426,0v7.131A.713.713,0,0,0,35.864,17.6Z" transform="translate(-35.151 -9.038)"/></g><g transform="translate(0 5.348)"><path class="c" d="M42.893,21.287a.713.713,0,0,0,.713-.713V18.791a.713.713,0,1,0-1.426,0v1.783A.713.713,0,0,0,42.893,21.287Z" transform="translate(-42.18 -18.078)"/></g></g></g></g></svg>