<svg xmlns="http://www.w3.org/2000/svg" width="31" height="28.942" viewBox="0 0 31 28.942">
  <g id="Group_15398" data-name="Group 15398" transform="translate(-1195 -139)" opacity="0.58">
    <path id="Path_5288" data-name="Path 5288" d="M20.174,22.932A10.634,10.634,0,0,0,0,27.591,10.482,10.482,0,0,0,1.014,32.12l-1,4.981A.909.909,0,0,0,1.085,38.17l5.042-1a10.447,10.447,0,0,0,2.1.736A12.425,12.425,0,0,1,20.174,22.932Z" transform="translate(1195 122.004)" fill="#68aed6"/>
    <path id="Path_5289" data-name="Path 5289" d="M181.715,160.126a10.563,10.563,0,0,0,.455-1.121h-.033a10.607,10.607,0,0,0-9.54-13.99h0a10.6,10.6,0,1,0-.509,21.179,10.479,10.479,0,0,0,4.515-1.014c5.522,1.092,5.091,1.014,5.218,1.014a.909.909,0,0,0,.891-1.086Z" transform="translate(1043.271 1.748)" fill="#68aed6"/>
  </g>
</svg>
