<svg xmlns="http://www.w3.org/2000/svg" width="27.992" height="28" viewBox="0 0 27.992 28">
  <path id="Path_5309" data-name="Path 5309" d="M24.364,4.126a14.009,14.009,0,1,0,0,19.732,13.85,13.85,0,0,0,0-19.732ZM6.946,6.441A10.768,10.768,0,0,1,14.5,3.25a10.734,10.734,0,0,1,6.189,2.041L14.5,11.48l-8.7,8.7A10.5,10.5,0,0,1,6.946,6.441Zm15.1,15.1a10.767,10.767,0,0,1-7.551,3.19,10.734,10.734,0,0,1-6.189-2.041L23.2,7.8a10.5,10.5,0,0,1-1.149,13.74Zm0,0" transform="translate(-0.502)" fill="#017dc2" opacity="0.55"/>
</svg>
