<svg xmlns="http://www.w3.org/2000/svg" width="33" height="33" viewBox="0 0 33 33"><defs><style>.a{fill:#bccdd9;}.b{fill:none;stroke:#bccdd9;stroke-linecap:round;stroke-width:1.5px;}</style></defs><g transform="translate(0 0)"><path class="a" d="M22.442,4.49a.9.9,0,0,0,0-1.792H18.858a.9.9,0,0,0-.9.9V7.178a.9.9,0,1,0,1.792,0V6.007a9.834,9.834,0,1,1-4.625-3.584.9.9,0,0,0,.627-1.68,11.664,11.664,0,1,0,5.1,3.747Z" transform="translate(16.503 33) rotate(-135)"/><path class="b" d="M49.418,43.57v7.909h-5.54" transform="translate(-32.918 -33.265)"/></g></svg>