<svg xmlns="http://www.w3.org/2000/svg" width="21.889" height="22.695" viewBox="0 0 21.889 22.695"><defs><style>.a,.c{fill:#bccdd9;}.a{stroke-linecap:round;}.b,.c{stroke:none;}</style></defs><g transform="translate(0.5 0.5)"><g class="a" transform="translate(-0.983 0)"><path class="b" d="M 21.46335601806641 21.94509506225586 C 21.28152656555176 21.94509506225586 21.11246490478516 21.87300491333008 20.98732566833496 21.74210548400879 L 15.04556941986084 15.56265354156494 C 13.491379737854 16.78351211547852 11.56143283843994 17.4533748626709 9.584745407104492 17.4533748626709 C 4.703875541687012 17.4533748626709 0.733005702495575 13.48252487182617 0.733005702495575 8.6016845703125 C 0.733005702495575 3.720854759216309 4.703875541687012 -0.2499953359365463 9.584745407104492 -0.2499953359365463 C 14.46561527252197 -0.2499953359365463 18.43649482727051 3.720854759216309 18.43649482727051 8.6016845703125 C 18.43649482727051 10.87536907196045 17.58025169372559 13.02160167694092 16.01992797851563 14.67281627655029 L 21.93888664245605 20.82834434509277 C 22.1906852722168 21.0907039642334 22.18239593505859 21.50899505615234 21.92056655883789 21.76094436645508 C 21.79658508300781 21.87981414794922 21.63432502746582 21.94509506225586 21.46335601806641 21.94509506225586 Z M 9.584745407104492 1.069204688072205 C 5.431295871734619 1.069204688072205 2.052215814590454 4.448264598846436 2.052215814590454 8.6016845703125 C 2.052215814590454 12.75510501861572 5.431295871734619 16.13416481018066 9.584745407104492 16.13416481018066 C 13.738205909729 16.13416481018066 17.11728477478027 12.75510501861572 17.11728477478027 8.6016845703125 C 17.11728477478027 4.448264598846436 13.738205909729 1.069204688072205 9.584745407104492 1.069204688072205 Z"/><path class="c" d="M 21.46335601806641 21.69509506225586 C 21.56575584411621 21.69509506225586 21.66774559020996 21.6569938659668 21.74721527099609 21.5808048248291 C 21.91023635864258 21.42393493652344 21.91514587402344 21.16465377807617 21.75867652893066 21.00162506103516 L 15.67232608795166 14.6720142364502 C 17.22474479675293 13.11511421203613 18.18649482727051 10.96878433227539 18.18649482727051 8.6016845703125 C 18.18649482727051 3.858474731445313 14.32799530029297 4.670104772230843e-06 9.584745407104492 4.670104772230843e-06 C 4.841495513916016 4.670104772230843e-06 0.983005702495575 3.858474731445313 0.983005702495575 8.6016845703125 C 0.983005702495575 13.34490489959717 4.841495513916016 17.2033748626709 9.584745407104492 17.2033748626709 C 11.66678524017334 17.2033748626709 13.57759571075439 16.45911407470703 15.06692600250244 15.22416496276855 L 21.16802597045898 21.56934547424316 C 21.24830627441406 21.6533145904541 21.35562515258789 21.69509506225586 21.46335601806641 21.69509506225586 M 9.584745407104492 0.8192046880722046 C 13.87620544433594 0.8192046880722046 17.36728477478027 4.310264587402344 17.36728477478027 8.6016845703125 C 17.36728477478027 12.89310455322266 13.87579536437988 16.38416481018066 9.584745407104492 16.38416481018066 C 5.293295860290527 16.38416481018066 1.802215695381165 12.89310455322266 1.802215695381165 8.6016845703125 C 1.802215695381165 4.310264587402344 5.293295860290527 0.8192046880722046 9.584745407104492 0.8192046880722046 M 21.46335601806641 22.19509506225586 C 21.21625518798828 22.19509506225586 20.97688484191895 22.09295463562012 20.80661582946777 21.91486549377441 L 15.02015781402588 15.8969144821167 C 13.45424938201904 17.06489944458008 11.54183006286621 17.7033748626709 9.584745407104492 17.7033748626709 C 4.566025733947754 17.7033748626709 0.483005702495575 13.62037467956543 0.483005702495575 8.6016845703125 C 0.483005702495575 3.583004713058472 4.566025733947754 -0.4999953210353851 9.584745407104492 -0.4999953210353851 C 14.60346603393555 -0.4999953210353851 18.68649482727051 3.583004713058472 18.68649482727051 8.6016845703125 C 18.68649482727051 10.86002922058105 17.86502838134766 12.99608612060547 16.36319160461426 14.66911888122559 L 22.11908531188965 20.65506553649902 C 22.46638488769531 21.01692390441895 22.45494651794434 21.59367561340332 22.09390640258789 21.94108390808105 C 21.92282485961914 22.1051139831543 21.69912528991699 22.19509506225586 21.46335601806641 22.19509506225586 Z M 9.584745407104492 1.319204688072205 C 5.569145679473877 1.319204688072205 2.302215814590454 4.586114883422852 2.302215814590454 8.6016845703125 C 2.302215814590454 12.61725425720215 5.569145679473877 15.88416481018066 9.584745407104492 15.88416481018066 C 13.60035610198975 15.88416481018066 16.86728477478027 12.61725425720215 16.86728477478027 8.6016845703125 C 16.86728477478027 4.586114883422852 13.60035610198975 1.319204688072205 9.584745407104492 1.319204688072205 Z"/></g></g></svg>