<svg xmlns="http://www.w3.org/2000/svg" width="23.645" height="22.695" viewBox="0 0 23.645 22.695"><defs><style>.a,.c{fill:#bccdd9;}.a{stroke-linecap:round;}.b,.c{stroke:none;}</style></defs><g transform="translate(0.5 0.5)"><g class="a" transform="translate(0 -1.047)"><path class="b" d="M 5.327515602111816 22.99224662780762 C 4.931645393371582 22.99224662780762 4.551315307617188 22.86755561828613 4.227635383605957 22.63164520263672 C 3.646915435791016 22.20930671691895 3.361425399780273 21.50717544555664 3.48278546333313 20.79943656921387 L 4.419135570526123 15.33872604370117 C 4.445115566253662 15.18751621246338 4.394655227661133 15.03291606903076 4.284155368804932 14.92508602142334 L 0.3171454071998596 11.05829620361328 C -0.1970645934343338 10.55716609954834 -0.3787446022033691 9.821186065673828 -0.1569745987653732 9.137566566467285 C 0.06532540917396545 8.453936576843262 0.6449853777885437 7.965336322784424 1.35584545135498 7.86228609085083 L 6.838715553283691 7.065155982971191 C 6.991145610809326 7.042956352233887 7.122665405273438 6.947525978088379 7.190445423126221 6.80988597869873 L 9.642275810241699 1.841426134109497 C 9.959935188293457 1.197226166725159 10.60375499725342 0.7969961166381836 11.32245540618896 0.7969961166381836 C 12.04143524169922 0.7969961166381836 12.68542575836182 1.197226166725159 13.0031156539917 1.841496109962463 L 15.45438575744629 6.80971622467041 C 15.5222749710083 6.94757604598999 15.65361499786377 7.04300594329834 15.80579566955566 7.065165996551514 L 21.2886962890625 7.861845970153809 C 21.99988555908203 7.965385913848877 22.57965469360352 8.454146385192871 22.80183601379395 9.137406349182129 C 23.02365493774414 9.821196556091309 22.84198570251465 10.55717658996582 22.32774543762207 11.05831623077393 L 18.36065483093262 14.92562580108643 C 18.25029563903809 15.03332614898682 18.1998348236084 15.18795585632324 18.22577476501465 15.33915615081787 L 19.16257476806641 20.79941558837891 C 19.283935546875 21.50717544555664 18.99845504760742 22.20929527282715 18.41753578186035 22.63179588317871 C 18.0941047668457 22.86715698242188 17.7134952545166 22.99157524108887 17.3169059753418 22.99157524108887 C 17.01518630981445 22.99157524108887 16.71321487426758 22.91654586791992 16.44363594055176 22.77460670471191 L 11.53984546661377 20.19644546508789 C 11.47312545776367 20.16142654418945 11.39789581298828 20.14286613464355 11.32245540618896 20.14286613464355 C 11.24701499938965 20.14286613464355 11.17178535461426 20.16142654418945 11.10492515563965 20.19652557373047 L 6.201595306396484 22.7746753692627 C 5.931415557861328 22.9169864654541 5.629105567932129 22.99224662780762 5.327515602111816 22.99224662780762 Z M 11.32245540618896 18.73622703552246 C 11.62453556060791 18.73622703552246 11.92603588104248 18.810546875 12.19437503814697 18.95115661621094 L 17.0986156463623 21.53000640869141 C 17.16876602172852 21.56655693054199 17.24278450012207 21.58530616760254 17.31780624389648 21.58530616760254 C 17.41363525390625 21.58530616760254 17.50800514221191 21.55368614196777 17.59069633483887 21.49385643005371 C 17.73954582214355 21.38566589355469 17.80727577209473 21.21910667419434 17.77605628967285 21.03723526000977 L 16.8397045135498 15.57693576812744 C 16.7351245880127 14.96887588500977 16.93641471862793 14.3486156463623 17.37815475463867 13.91785621643066 L 21.34531593322754 10.05093574523926 C 21.47736549377441 9.922176361083984 21.52042579650879 9.747666358947754 21.46342468261719 9.572155952453613 C 21.40649604797363 9.39659595489502 21.26910591125488 9.280655860900879 21.08644485473633 9.253955841064453 L 15.60368537902832 8.457305908203125 C 14.99289512634277 8.368856430053711 14.46545505523682 7.985586166381836 14.19288539886475 7.432065963745117 L 11.74123573303223 2.463976144790649 C 11.65952587127686 2.298746109008789 11.50668525695801 2.203866004943848 11.32200527191162 2.203866004943848 C 11.13731575012207 2.203866004943848 10.98469543457031 2.298626184463501 10.90327548980713 2.463846206665039 L 8.451475143432617 7.43225622177124 C 8.179015159606934 7.985536098480225 7.651405334472656 8.368816375732422 7.040195465087891 8.45732593536377 L 1.557805418968201 9.253986358642578 C 1.375345349311829 9.280655860900879 1.23796546459198 9.396586418151855 1.18107545375824 9.572035789489746 C 1.123765349388123 9.747575759887695 1.166865348815918 9.921956062316895 1.299165368080139 10.05096626281738 L 5.266715526580811 13.91827583312988 C 5.708365440368652 14.34839630126953 5.909865379333496 14.96846580505371 5.805675506591797 15.57688617706299 L 4.869315624237061 21.03719520568848 C 4.838435173034668 21.21916580200195 4.906135559082031 21.38588523864746 5.055115222930908 21.49418640136719 C 5.137265205383301 21.55373573303223 5.231475353240967 21.58530616760254 5.327305316925049 21.58530616760254 C 5.402535438537598 21.58530616760254 5.476905345916748 21.56649589538574 5.548365592956543 21.52939605712891 L 10.45021533966064 18.9517765045166 C 10.71891498565674 18.81073570251465 11.02047538757324 18.73622703552246 11.32245540618896 18.73622703552246 Z"/><path class="c" d="M 11.32245540618896 1.0469970703125 C 10.70033550262451 1.0469970703125 10.14170551300049 1.393877029418945 9.86646556854248 1.952056884765625 L 7.414725303649902 6.92033576965332 C 7.31043529510498 7.132095336914063 7.108205795288086 7.278545379638672 6.874685287475586 7.312555313110352 L 1.391716003417969 8.109696388244629 C 0.7754955291748047 8.199026107788086 0.2735347747802734 8.622076034545898 0.0808258056640625 9.214715957641602 C -0.1114349365234375 9.807355880737305 0.04590606689453125 10.44488620758057 0.4916362762451172 10.87927627563477 L 4.458765029907227 14.74616622924805 C 4.627895355224609 14.91121578216553 4.705434799194336 15.14881610870361 4.665534973144531 15.3809757232666 L 3.729185104370117 20.8416862487793 C 3.623985290527344 21.45517539978027 3.871114730834961 22.06323623657227 4.374885559082031 22.42961692810059 C 4.659255981445313 22.63687515258789 4.992198944091797 22.74224853515625 5.327510833740234 22.74224853515625 C 5.585668563842773 22.74224853515625 5.84520149230957 22.67983245849609 6.085245132446289 22.55339622497559 L 10.98872566223145 19.97516632080078 C 11.09324550628662 19.92030143737793 11.20785045623779 19.89286804199219 11.32245540618896 19.89286804199219 C 11.43706035614014 19.89286804199219 11.55166530609131 19.92030143737793 11.65618515014648 19.97516632080078 L 16.56011581420898 22.55339622497559 C 16.79952621459961 22.67945671081543 17.05889511108398 22.74157524108887 17.3169059753418 22.74157524108887 C 17.6519947052002 22.74157524108887 17.98572540283203 22.63683700561523 18.27048492431641 22.42961692810059 C 18.77424621582031 22.06323623657227 19.02137565612793 21.45517539978027 18.91617584228516 20.8416862487793 L 17.9793758392334 15.38142585754395 C 17.93947601318359 15.14881610870361 18.01701545715332 14.91166591644287 18.1861457824707 14.74661636352539 L 22.15326499938965 10.87927627563477 C 22.59899520874023 10.44488620758057 22.75634574890137 9.807355880737305 22.56408500671387 9.214715957641602 C 22.37137603759766 8.622076034545898 21.86941528320313 8.199026107788086 21.25274467468262 8.109246253967285 L 15.769775390625 7.312555313110352 C 15.5362548828125 7.278545379638672 15.33447551727295 7.132095336914063 15.23018550872803 6.92033576965332 L 12.77889537811279 1.952056884765625 C 12.50365543365479 1.393877029418945 11.94502544403076 1.0469970703125 11.32245540618896 1.0469970703125 M 17.31780052185059 21.83530616760254 C 17.20435333251953 21.83530616760254 17.09004974365234 21.80743980407715 16.98226547241211 21.75127601623535 L 12.07833576202393 19.1725959777832 C 11.84209537506104 19.04880523681641 11.58181571960449 18.98622512817383 11.32245540618896 18.98622512817383 C 11.06308555603027 18.98622512817383 10.80326557159424 19.04880523681641 10.566575050354 19.17304611206055 L 5.663555145263672 21.75127601623535 C 5.555391311645508 21.80743217468262 5.440830230712891 21.83530616760254 5.327310562133789 21.83530616760254 C 5.180521011352539 21.83530616760254 5.03546142578125 21.78871154785156 4.908124923706055 21.6964054107666 C 4.682315826416016 21.53226661682129 4.576206207275391 21.27018547058105 4.622915267944336 20.99494552612305 L 5.559255599975586 15.53468608856201 C 5.649496078491211 15.00779628753662 5.47491455078125 14.47002601623535 5.092214584350586 14.0972957611084 L 1.124635696411133 10.22995567321777 C 0.9246749877929688 10.0349760055542 0.8566551208496094 9.760195732116699 0.9432659149169922 9.494935989379883 C 1.029415130615234 9.229226112365723 1.245704650878906 9.04694652557373 1.521844863891602 9.006586074829102 L 7.004364967346191 8.209906578063965 C 7.533525466918945 8.133275985717773 7.991044998168945 7.801355361938477 8.227285385131836 7.321626663208008 L 10.67902565002441 2.35334587097168 C 10.80236530303955 2.103046417236328 11.04313564300537 1.953866958618164 11.32200527191162 1.953866958618164 C 11.60131549835205 1.953866958618164 11.84164524078369 2.103046417236328 11.96542549133301 2.35334587097168 L 14.41716575622559 7.321626663208008 C 14.65340518951416 7.801355361938477 15.11047554016113 8.133275985717773 15.63963508605957 8.209906578063965 L 21.12260627746582 9.006586074829102 C 21.39874458312988 9.04694652557373 21.61503601074219 9.229226112365723 21.70119476318359 9.494935989379883 C 21.78734588623047 9.760195732116699 21.71978569030762 10.0349760055542 21.51981544494629 10.22995567321777 L 17.55268478393555 14.09684658050537 C 17.16998481750488 14.47002601623535 16.99541473388672 15.00734615325928 17.08610534667969 15.53468608856201 L 18.0224552154541 20.99494552612305 C 18.06960487365723 21.26972579956055 17.96305465698242 21.53226661682129 17.73723602294922 21.6964054107666 C 17.60966110229492 21.7887020111084 17.46445846557617 21.83530616760254 17.31780052185059 21.83530616760254 M 11.32245540618896 0.5469970703125 C 12.13732528686523 0.5469970703125 12.86723518371582 1.000656127929688 13.22733497619629 1.730926513671875 L 15.67857551574707 6.699106216430664 C 15.71016502380371 6.763236999511719 15.7711353302002 6.807476043701172 15.84183502197266 6.817775726318359 L 21.32464599609375 7.614446640014648 C 22.13070487976074 7.731796264648438 22.78777503967285 8.285726547241211 23.03957557678223 9.06009578704834 C 23.29102516174316 9.835186004638672 23.08508491516113 10.66933631896973 22.50223541259766 11.23735618591309 L 18.53516578674316 15.10464572906494 C 18.4837646484375 15.15480613708496 18.46014595031738 15.22674655914307 18.47217559814453 15.29689598083496 L 19.40897560119629 20.75713539123535 C 19.54653549194336 21.55934524536133 19.22297477722168 22.35512542724609 18.5645751953125 22.83397674560547 C 18.19818496704102 23.10060691833496 17.76670455932617 23.24157524108887 17.3169059753418 23.24157524108887 C 16.97475433349609 23.24157524108887 16.63251495361328 23.15659523010254 16.3271656036377 22.99581527709961 L 11.42350578308105 20.41772651672363 C 11.39261531829834 20.40151596069336 11.35758495330811 20.39286613464355 11.32245540618896 20.39286613464355 C 11.28732585906982 20.39286613464355 11.25229549407959 20.40151596069336 11.22113513946533 20.41786575317383 L 6.317935943603516 22.99594688415527 C 6.012155532836914 23.15701675415039 5.669565200805664 23.24224662780762 5.3275146484375 23.24224662780762 C 4.878364562988281 23.24224662780762 4.447114944458008 23.10096549987793 4.080385208129883 22.83368682861328 C 3.422386169433594 22.35513687133789 3.098825454711914 21.55935668945313 3.23637580871582 20.75717544555664 L 4.172725677490234 15.29647636413574 C 4.184795379638672 15.22625637054443 4.161165237426758 15.15437602996826 4.109556198120117 15.10400581359863 L 0.1426353454589844 11.23732566833496 C -0.440185546875 10.66933631896973 -0.6461143493652344 9.835186004638672 -0.394775390625 9.060425758361816 C -0.1427745819091797 8.285455703735352 0.5142459869384766 7.73167610168457 1.319986343383789 7.614866256713867 L 6.802745819091797 6.817756652832031 C 6.873625755310059 6.807435989379883 6.934765815734863 6.76319694519043 6.966175079345703 6.699426651000977 L 9.418085098266602 1.730796813964844 C 9.778125762939453 1.000656127929688 10.50785541534424 0.5469970703125 11.32245540618896 0.5469970703125 Z M 17.31780624389648 21.33530616760254 C 17.36129570007324 21.33530616760254 17.40380477905273 21.32050704956055 17.44415473937988 21.29130554199219 C 17.51471519470215 21.24001693725586 17.54459571838379 21.16655540466309 17.52965545654297 21.07950592041016 L 16.59329605102539 15.61919593811035 C 16.47479629516602 14.9301061630249 16.70293426513672 14.22709655761719 17.20361518859863 13.73886585235596 L 21.17081451416016 9.871906280517578 C 21.23394584655762 9.810345649719238 21.25292587280273 9.733386039733887 21.22564506530762 9.649386405944824 C 21.19835472106934 9.56523609161377 21.13774490356445 9.514116287231445 21.05029487609863 9.501326560974121 L 15.56773567199707 8.704706192016602 C 14.87549591064453 8.604466438293457 14.27759552001953 8.169985771179199 13.96860504150391 7.542516708374023 L 11.51704502105713 2.574605941772461 C 11.47804546356201 2.495746612548828 11.41053581237793 2.453866958618164 11.32200527191162 2.453866958618164 C 11.23361587524414 2.453866958618164 11.16637516021729 2.495525360107422 11.12752532958984 2.574356079101563 L 8.675665855407715 7.542886734008789 C 8.366875648498535 8.16994571685791 7.768815040588379 8.604415893554688 7.076025009155273 8.704746246337891 L 1.593746185302734 9.501385688781738 C 1.506706237792969 9.514116287231445 1.446094512939453 9.565226554870605 1.418895721435547 9.64914608001709 C 1.391334533691406 9.733535766601563 1.410406112670898 9.810246467590332 1.473705291748047 9.871975898742676 L 5.441215515136719 13.7392463684082 C 5.941764831542969 14.22675609588623 6.170175552368164 14.92955589294434 6.05207633972168 15.61909580230713 L 5.115724563598633 21.0794563293457 C 5.100975036621094 21.16634559631348 5.130794525146484 21.24012565612793 5.202116012573242 21.29196548461914 C 5.241605758666992 21.32059669494629 5.283905029296875 21.33530616760254 5.327316284179688 21.33530616760254 C 5.362045288085938 21.33530616760254 5.397645950317383 21.32595634460449 5.433145523071289 21.30752563476563 L 10.33386516571045 18.73050689697266 C 10.63842582702637 18.57063674926758 10.98016548156738 18.48622512817383 11.32245540618896 18.48622512817383 C 11.66478538513184 18.48622512817383 12.00641536712646 18.57042694091797 12.31040573120117 18.72971725463867 L 17.21497535705566 21.30872535705566 C 17.24826431274414 21.32607650756836 17.28341484069824 21.33530616760254 17.31780624389648 21.33530616760254 Z"/></g></g></svg>