<svg xmlns="http://www.w3.org/2000/svg" width="15" height="15" viewBox="0 0 15 15"><defs><style>.a{fill:#fff;}</style></defs><path class="a" d="M1.279,287.609a4.2,4.2,0,0,0,5.946,0L9.7,285.135a.39.39,0,0,0,0-.549L8.151,283.04,6.786,284.4l.429.43-1.383,1.384a2.237,2.237,0,0,1-3.164,0l-.046-.046a2.238,2.238,0,0,1,0-3.165L4,281.623l.429.43L5.8,280.687,4.252,279.14a.389.389,0,0,0-.548,0l-2.473,2.473a4.207,4.207,0,0,0,0,5.947Z" transform="translate(0 -273.84)"/><path class="a" d="M285.007,1.331a4.205,4.205,0,0,0-5.946,0l-2.523,2.525a.39.39,0,0,0,0,.549l1.547,1.547L279.5,4.535,279.07,4.1l1.383-1.384a2.237,2.237,0,0,1,3.164,0l.046.046a2.238,2.238,0,0,1,0,3.165l-1.383,1.384-.429-.43L280.435,8.3l1.547,1.547a.389.389,0,0,0,.548,0l2.525-2.525a4.207,4.207,0,0,0,0-5.947Z" transform="translate(-271.286 -0.1)"/><path class="a" d="M235.863,229.972a.929.929,0,0,0-1.313,0l-.413.411-1.417,1.417-1,1-1.365,1.365-.411.411a.929.929,0,1,0,1.313,1.315l.411-.411,1.365-1.365,1-1,1.417-1.417.411-.411A.929.929,0,0,0,235.863,229.972Z" transform="translate(-225.405 -225.43)"/></svg>