<svg xmlns="http://www.w3.org/2000/svg" width="31.978" height="28.909" viewBox="0 0 31.978 28.909"><defs><style>.a{opacity:0.65;}.b{fill:#318990;stroke:#318990;}</style></defs><g class="a" transform="translate(0.5 -26.982)"><g transform="translate(0 27.482)"><path class="b" d="M15.483,27.482a15.556,15.556,0,0,0-13.6,22.967V46.337a3.318,3.318,0,0,1,.743-2.064q-.059-.615-.059-1.237a13.017,13.017,0,0,1,12.92-12.992,12.982,12.982,0,0,1,12.859,14.36,3.286,3.286,0,0,1,.643,1.932v4.321a15.557,15.557,0,0,0-13.5-23.176Z" transform="translate(0 -27.482)"/><path class="b" d="M49.06,309.662a2.267,2.267,0,0,0-.1.664v5.808c0,1.793,2.135,3.246,4.769,3.246h2.008v-12.3H53.729C51.429,307.08,49.511,308.187,49.06,309.662Z" transform="translate(-46.227 -291.471)"/><path class="b" d="M389.276,316.135v-5.808a2.248,2.248,0,0,0-.04-.413c-.3-1.6-2.3-2.833-4.729-2.833H382.5v12.3h2.008C387.142,319.381,389.276,317.928,389.276,316.135Z" transform="translate(-361.146 -291.472)"/></g></g></svg>