<svg xmlns="http://www.w3.org/2000/svg" width="24.782" height="31.481" viewBox="0 0 24.782 31.481"><defs><style>.a{fill:#498bb6;}</style></defs><path class="a" d="M74.9,1.819V0H61.886V1.819H56V31.481H80.782V1.819Zm-11.152.026h9.293V3.663H63.744ZM78.923,29.636H57.859V3.663h4.027V5.508H74.9V3.663h4.027Z" transform="translate(-56)"/><path class="a" d="M121.576,124.578H116v5.534h5.576Zm-1.859,3.689h-1.859v-1.845h1.859Z" transform="translate(-112.283 -116.918)"/><path class="a" d="M255.875,154.578h8.681v1.845h-8.681Z" transform="translate(-243.492 -145.074)"/><path class="a" d="M121.576,248.578H116v5.534h5.576Zm-1.859,3.689h-1.859v-1.845h1.859Z" transform="translate(-112.283 -233.294)"/><path class="a" d="M255.875,278.578h8.681v1.845h-8.681Z" transform="translate(-243.492 -261.449)"/><path class="a" d="M255.875,400.578h8.681v1.845h-8.681Z" transform="translate(-243.492 -375.948)"/><path class="a" d="M110.91,373.7l-1.2-1.192-1.314,1.3,2.516,2.5,4.065-4.034-1.314-1.3Z" transform="translate(-105.148 -348.163)"/></svg>