<svg xmlns="http://www.w3.org/2000/svg" width="9.739" height="15.217" viewBox="0 0 9.739 15.217"><defs><style>.a{fill:#fff;}</style></defs><g transform="translate(-78.336)"><g transform="translate(78.336 7.322)"><g transform="translate(0)"><path class="a" d="M88.075,209.945a.537.537,0,1,0-1.074,0,3.8,3.8,0,0,1-7.59,0,.537.537,0,1,0-1.074,0,4.869,4.869,0,0,0,4.332,4.851v1.432H80.717a.537.537,0,1,0,0,1.074h4.977a.537.537,0,1,0,0-1.074H83.742V214.8A4.869,4.869,0,0,0,88.075,209.945Z" transform="translate(-78.336 -209.408)"/></g></g><g transform="translate(80.216)"><g transform="translate(0)"><path class="a" d="M135.086,0a3,3,0,0,0-2.99,2.99V7.841a2.99,2.99,0,1,0,5.979.018V2.99A3,3,0,0,0,135.086,0Z" transform="translate(-132.096)"/></g></g></g></svg>