<svg xmlns="http://www.w3.org/2000/svg" width="134.997" height="19" viewBox="0 0 134.997 19"><defs><style>.a,.b{fill:#dbe8f0;}.a{fill-rule:evenodd;}.b{font-size:15px;font-family:Assistant-SemiBold, Assistant;font-weight:600;}</style></defs><g transform="translate(-50 -5)"><g transform="translate(86.506 -111.463)"><path class="a" d="M78.686,134.031a3.72,3.72,0,0,0-2.656-1.12,3.023,3.023,0,0,0-2.869,1.983V133.23H70.317v13.08h3.288v-5.327l-.012-.632a7.751,7.751,0,0,1,.529-3.646,1.631,1.631,0,0,1,1.518-.743,1.535,1.535,0,0,1,1.587.76A9.269,9.269,0,0,1,78.686,134.031Z" transform="translate(-32.229 -11.107)"/><path class="a" d="M32.66,122.671a1.608,1.608,0,0,0-.781-1.492,4.438,4.438,0,0,0-2.108-.35h-.936v3.622H29.89q1.977,0,2.5-.781A1.771,1.771,0,0,0,32.66,122.671Zm3.24,0a4.9,4.9,0,0,1-.928,3.022,4.826,4.826,0,0,1-2.628,1.734,14.866,14.866,0,0,1-3.51.274v7.5H25.5l0-17.739h3.534a13.966,13.966,0,0,1,3.428.31,4.53,4.53,0,0,1,2.718,2.047A5.392,5.392,0,0,1,35.9,122.676Z" transform="translate(0 -0.001)"/><path class="a" d="M112.185,139.821a3.823,3.823,0,0,0-.957-2.668,3.58,3.58,0,0,0-5.112.029,3.8,3.8,0,0,0-.947,2.638,3.855,3.855,0,0,0,.936,2.661,3.242,3.242,0,0,0,2.554,1.1,3.276,3.276,0,0,0,2.568-1.1A3.821,3.821,0,0,0,112.185,139.821Zm3.29-.006a6.866,6.866,0,0,1-.9,3.431,6.5,6.5,0,0,1-2.476,2.5,6.847,6.847,0,0,1-3.461.9,6.41,6.41,0,0,1-4.759-1.985,6.62,6.62,0,0,1-1.947-4.82,6.542,6.542,0,0,1,2.219-5.063,6.437,6.437,0,0,1,4.475-1.765,6.853,6.853,0,0,1,3.437.913,6.558,6.558,0,0,1,2.51,2.49A6.749,6.749,0,0,1,115.475,139.814Z" transform="translate(-54.959 -11.179)"/><path class="a" d="M167.062,127.24v-3.206h-5.384v-3.206h5.289l-3.37-3.365h-5.232l0,17.74h3.313l0-7.962Z" transform="translate(-95.536)"/><path class="a" d="M221,135.2l.007-17.74h-3.265l-.007,17.74Z" transform="translate(-138.229)"/><path class="a" d="M247.207,138.175h-6.992a4.177,4.177,0,0,1,1.184-1.65,3.885,3.885,0,0,1,2.365-.749,3.777,3.777,0,0,1,2.154.644A3.117,3.117,0,0,1,247.207,138.175Zm3.29,1.975a6.915,6.915,0,0,0-1.917-5.184,6.656,6.656,0,0,0-4.974-1.955,6.378,6.378,0,0,0-4.817,1.973A6.826,6.826,0,0,0,236.9,139.9a6.46,6.46,0,0,0,1.949,4.861,6.821,6.821,0,0,0,4.941,1.883,7.128,7.128,0,0,0,4.362-1.3L246,143.189a4.4,4.4,0,0,1-2.218.566,3.877,3.877,0,0,1-2.474-.785,3.4,3.4,0,0,1-1.238-2.2h10.416Z" transform="translate(-152.008 -11.179)"/><path class="a" d="M200.851,149.986l0-8.7-3.263-3.26,0,11.963Z" transform="translate(-123.737 -14.783)"/><path class="a" d="M195.122,123.056v-5.593h-5.6Z" transform="translate(-117.939)"/></g><text class="b" transform="translate(106 20)"><tspan x="-55.185" y="0">UI/UX by</tspan></text></g></svg>