<svg xmlns="http://www.w3.org/2000/svg" width="20.679" height="31.358" viewBox="0 0 20.679 31.358"><defs><style>.a{opacity:0.45;}.b{fill:#286397;}</style></defs><g class="a" transform="translate(-5.34)"><path class="b" d="M15.255,0c5.424,0,10.764,2.5,10.764,8.473,0,5.51-6.314,7.629-7.67,9.62-1.018,1.481-.678,3.562-3.475,3.562a2.7,2.7,0,0,1-2.712-2.838c0-5.046,7.414-6.188,7.414-10.343,0-2.287-1.522-3.643-4.066-3.643-5.424,0-3.306,5.592-7.414,5.592A2.536,2.536,0,0,1,5.34,7.839C5.339,3.683,10.084,0,15.255,0Zm-.211,24.406a3.476,3.476,0,1,1-3.476,3.476A3.492,3.492,0,0,1,15.044,24.406Z"/></g></svg>