<svg xmlns="http://www.w3.org/2000/svg" width="12.52" height="10.416" viewBox="0 0 12.52 10.416"><defs><style>.a{fill:#D24F57;}</style></defs><g transform="translate(0)"><path class="a" d="M.2,46.067l4.521-4.522a.687.687,0,0,1,.969,0l.411.411a.68.68,0,0,1,.2.485.694.694,0,0,1-.2.49L3.463,45.575h8.38a.669.669,0,0,1,.676.674v.581a.694.694,0,0,1-.676.7H3.433L6.1,50.191a.679.679,0,0,1,0,.962l-.411.409a.687.687,0,0,1-.969,0L.2,47.04a.691.691,0,0,1,0-.973Z" transform="translate(0 -41.346)"></path></g></svg>