<svg xmlns="http://www.w3.org/2000/svg" width="55" height="55" viewBox="0 0 55 55"><defs><style>.a{fill:#f4f7f7;}.b{fill:#ce3c45;}</style></defs><g transform="translate(-778 -740)"><circle class="a" cx="27.5" cy="27.5" r="27.5" transform="translate(778 740)"/><g transform="translate(823.267 767.957) rotate(133)"><path class="b" d="M25.27,18.678l-3.552-3.552a2.362,2.362,0,0,0-3.932.888A2.417,2.417,0,0,1,15,17.536c-2.537-.634-5.962-3.932-6.6-6.6A2.3,2.3,0,0,1,9.922,8.15a2.362,2.362,0,0,0,.888-3.932L7.258.666a2.533,2.533,0,0,0-3.425,0l-2.41,2.41c-2.41,2.537.254,9.26,6.215,15.221S20.323,27.05,22.86,24.513l2.41-2.41A2.533,2.533,0,0,0,25.27,18.678Z" transform="translate(-0.539 0)"/></g></g></svg>