<svg xmlns="http://www.w3.org/2000/svg" width="18" height="18" viewBox="0 0 18 18"><defs><style>.a{fill:#ce3c45;}</style></defs><path class="a" d="M9,0a9,9,0,1,0,9,9A8.974,8.974,0,0,0,9,0Zm1.309,9.164,3.068,3.068a.4.4,0,0,1,0,.573l-.573.573a.442.442,0,0,1-.286.123.371.371,0,0,1-.286-.123L9.164,10.309a.2.2,0,0,0-.286,0L5.809,13.377a.442.442,0,0,1-.286.123.371.371,0,0,1-.286-.123L4.664,12.8a.4.4,0,0,1,0-.573L7.732,9.164a.2.2,0,0,0,0-.286L4.664,5.809a.4.4,0,0,1,0-.573l.573-.573a.4.4,0,0,1,.573,0L8.877,7.732a.2.2,0,0,0,.286,0l3.068-3.068a.442.442,0,0,1,.286-.123.371.371,0,0,1,.286.123l.573.573a.4.4,0,0,1,0,.573L10.309,8.877C10.227,8.918,10.227,9.082,10.309,9.164Z"/></svg>