<svg xmlns="http://www.w3.org/2000/svg" width="18.545" height="18.545" viewBox="0 0 18.545 18.545"><defs><style>.a{fill:#d3d3d3;}</style></defs><g transform="translate(0 0)"><rect class="a" width="2.061" height="3.091" transform="translate(10.303 3.091)"/><path class="a" d="M17.942,3.517,15.028.6A2.061,2.061,0,0,0,13.571,0H2.061A2.06,2.06,0,0,0,0,2.061V16.485a2.061,2.061,0,0,0,2.061,2.061H16.485a2.061,2.061,0,0,0,2.061-2.061V4.974A2.061,2.061,0,0,0,17.942,3.517ZM9.273,14.939a2.576,2.576,0,1,1,2.576-2.576A2.575,2.575,0,0,1,9.273,14.939Zm4.121-7.727H3.091V2.061h10.3Z" transform="translate(0 0)"/></g></svg>