<svg xmlns="http://www.w3.org/2000/svg" width="20.601" height="31.963" viewBox="0 0 20.601 31.963"><path d="M91.936,7.491a.936.936,0,0,0,.936-.936,4.682,4.682,0,1,1,9.364,0,.936.936,0,0,0,1.873,0,6.555,6.555,0,1,0-13.11,0A.936.936,0,0,0,91.936,7.491Z" transform="translate(-91)"/><path d="M95.263,88.118a.937.937,0,0,0,.419.1h13.11a.936.936,0,0,0,.662-.274,7.283,7.283,0,0,0,2.147-5.183V74.171a2.808,2.808,0,0,0-3.845-2.611,2.807,2.807,0,0,0-3.746-1.873,2.808,2.808,0,0,0-3.647-1.91V62.809a2.809,2.809,0,1,0-5.618,0V73.234h-.936A2.812,2.812,0,0,0,91,76.044V81.22a7.713,7.713,0,0,0,4.263,6.9Zm-2.39-12.074a.937.937,0,0,1,.936-.936h.936v4.026a.936.936,0,1,0,1.873,0V62.809a.936.936,0,0,1,1.873,0V76.044a.936.936,0,0,0,1.873,0V70.425a.936.936,0,1,1,1.873,0v5.618a.936.936,0,0,0,1.873,0V72.3a.936.936,0,1,1,1.873,0v3.746a.936.936,0,0,0,1.873,0V74.171a.936.936,0,1,1,1.873,0v8.588a5.418,5.418,0,0,1-1.342,3.585H95.912a5.805,5.805,0,0,1-3.039-5.124Z" transform="translate(-91 -56.254)"/></svg>