<svg xmlns="http://www.w3.org/2000/svg" width="28.696" height="27.5" viewBox="0 0 28.696 27.5"><defs><style>.a{opacity:0.73;}.b{fill:#43848b;}</style></defs><g class="a" transform="translate(0 0)"><path class="b" d="M8.75,17.612v5.545a.9.9,0,0,0,1.619.531l3.244-4.414Z" transform="translate(1.712 3.446)"/><path class="b" d="M28.319.166A.9.9,0,0,0,27.384.1L.482,14.151a.9.9,0,0,0,.124,1.644l7.479,2.556L24.012,4.732,11.687,19.581l12.534,4.284a.918.918,0,0,0,.289.048.9.9,0,0,0,.887-.764L28.686,1.029a.9.9,0,0,0-.367-.863Z" transform="translate(0 0)"/></g></svg>