<svg xmlns="http://www.w3.org/2000/svg" width="12.366" height="12.366" viewBox="0 0 12.366 12.366"><defs><style>.a{fill:#498bb6;}</style></defs><path class="a" d="M12.075,4.775l-.95-.207a5.172,5.172,0,0,0-.306-.738l.526-.818a.37.37,0,0,0-.05-.461L9.814,1.07a.37.37,0,0,0-.461-.05l-.818.526A5.172,5.172,0,0,0,7.8,1.241L7.591.291A.369.369,0,0,0,7.23,0H5.136a.369.369,0,0,0-.361.291l-.207.95a5.172,5.172,0,0,0-.738.306l-.818-.526a.37.37,0,0,0-.461.05L1.071,2.551a.37.37,0,0,0-.05.461l.526.818a5.172,5.172,0,0,0-.306.738l-.95.207A.37.37,0,0,0,0,5.136V7.23a.37.37,0,0,0,.291.361l.95.207a5.172,5.172,0,0,0,.306.738l-.526.818a.37.37,0,0,0,.05.461l1.481,1.481a.37.37,0,0,0,.461.05l.818-.526a5.172,5.172,0,0,0,.738.306l.207.95a.369.369,0,0,0,.361.291H7.23a.369.369,0,0,0,.361-.291l.207-.95a5.172,5.172,0,0,0,.738-.306l.818.526a.369.369,0,0,0,.461-.05l1.481-1.481a.37.37,0,0,0,.05-.461l-.526-.818a5.173,5.173,0,0,0,.306-.738l.95-.207a.37.37,0,0,0,.291-.361V5.136A.37.37,0,0,0,12.075,4.775ZM8.4,6.183A2.217,2.217,0,1,1,6.183,3.966,2.22,2.22,0,0,1,8.4,6.183Zm0,0" transform="translate(0 0)"/></svg>