<svg xmlns="http://www.w3.org/2000/svg" width="28.128" height="28.5" viewBox="0 0 28.128 28.5"><defs><style>.a{fill:#498bb6;}</style></defs><g transform="translate(-0.672 0.015)"><path class="a" d="M26.355,28.485a3.681,3.681,0,0,1-1.168-.285L20.57,25.892A13.9,13.9,0,0,1,12.192,27.2,13.737,13.737,0,0,1,.794,15.947,13.766,13.766,0,0,1,5.125,3.694,14.085,14.085,0,0,1,17.834.331a13.446,13.446,0,0,1,9.973,10.4,13.989,13.989,0,0,1-.855,8.378l1.738,6.07a2.441,2.441,0,0,1-.712,2.593,2.539,2.539,0,0,1-1.624.712Zm-5.642-5.471a4.524,4.524,0,0,1,1.311.285l3.761,1.881-1.6-5.186a3.359,3.359,0,0,1,.142-2.023,11.392,11.392,0,0,0,.712-6.639A10.865,10.865,0,0,0,7.006,5.688a11.163,11.163,0,0,0-3.305,9.8A10.707,10.707,0,0,0,12.648,24.3a11.711,11.711,0,0,0,6.639-1,5.062,5.062,0,0,1,1.425-.285Z" transform="translate(0 0)"/><circle class="a" cx="2.023" cy="2.023" r="2.023" transform="translate(6.294 11.444)"/><circle class="a" cx="2.023" cy="2.023" r="2.023" transform="translate(12.648 11.444)"/><circle class="a" cx="2.023" cy="2.023" r="2.023" transform="translate(19.003 11.444)"/></g></svg>