<svg xmlns="http://www.w3.org/2000/svg" width="14" height="15" viewBox="0 0 14 15"><defs><style>.a{fill:#fff;}</style></defs><path class="a" d="M30.528,2.143H26.758V1.607A1.611,1.611,0,0,0,25.143,0H22.989a1.611,1.611,0,0,0-1.615,1.607v.536H17.6a.536.536,0,1,0,0,1.071h.585l1.03,11.3a.537.537,0,0,0,.538.487h8.615a.537.537,0,0,0,.538-.487l1.03-11.3h.585a.536.536,0,1,0,0-1.071Zm-8.077-.536a.537.537,0,0,1,.538-.536h2.154a.537.537,0,0,1,.538.536v.536H22.451V1.607Zm5.431,12.321H20.25L19.274,3.214h9.587Z" transform="translate(-17.066 0)"/><g transform="translate(3.789 4.694)"><g transform="translate(0)"><path class="a" d="M138.037,144.186v0l-.515-7.214a.517.517,0,0,0-1.031.073l.515,7.214a.515.515,0,0,0,.515.479h.037A.515.515,0,0,0,138.037,144.186Z" transform="translate(-136.489 -136.49)"/></g></g><g transform="translate(6.485 4.695)"><path class="a" d="M222.381,136.533a.515.515,0,0,0-.515.515v7.214a.515.515,0,0,0,1.031,0v-7.214A.515.515,0,0,0,222.381,136.533Z" transform="translate(-221.866 -136.533)"/></g><g transform="translate(8.662 4.694)"><path class="a" d="M291.155,136.491a.517.517,0,0,0-.552.479l-.515,7.214a.515.515,0,0,0,.476.552h.039a.515.515,0,0,0,.515-.479l.515-7.214A.517.517,0,0,0,291.155,136.491Z" transform="translate(-290.086 -136.489)"/></g></svg>