<svg xmlns="http://www.w3.org/2000/svg" width="12" height="15" viewBox="0 0 12 15"><defs><style>.a{fill:#fff;}</style></defs><g transform="translate(0)"><path class="a" d="M90.389,7.222a3.137,3.137,0,0,0,2.374-1.058,3.632,3.632,0,0,0,.983-2.553,3.632,3.632,0,0,0-.983-2.553,3.192,3.192,0,0,0-4.747,0,3.632,3.632,0,0,0-.983,2.553,3.632,3.632,0,0,0,.984,2.553A3.138,3.138,0,0,0,90.389,7.222Zm0,0" transform="translate(-84.483 0)"/><path class="a" d="M11.971,251.6a9.279,9.279,0,0,0-.117-.947,7.726,7.726,0,0,0-.224-.952,4.809,4.809,0,0,0-.376-.888,3.34,3.34,0,0,0-.566-.769,2.486,2.486,0,0,0-.814-.533,2.711,2.711,0,0,0-1.039-.2,1.031,1.031,0,0,0-.563.249c-.169.115-.366.247-.587.394a3.3,3.3,0,0,1-.759.349,2.834,2.834,0,0,1-1.857,0,3.286,3.286,0,0,1-.758-.348c-.218-.145-.416-.278-.587-.394a1.03,1.03,0,0,0-.563-.249,2.708,2.708,0,0,0-1.039.2,2.484,2.484,0,0,0-.814.533,3.341,3.341,0,0,0-.566.769,4.818,4.818,0,0,0-.376.888,7.744,7.744,0,0,0-.223.952,9.247,9.247,0,0,0-.117.948c-.019.287-.029.585-.029.885a2.546,2.546,0,0,0,.709,1.883,2.494,2.494,0,0,0,1.828.7H9.463a2.494,2.494,0,0,0,1.828-.7A2.545,2.545,0,0,0,12,252.488c0-.3-.01-.6-.029-.886Zm0,0" transform="translate(0 -240.067)"/></g></svg>