<svg xmlns="http://www.w3.org/2000/svg" width="22.61" height="22.634" viewBox="0 0 22.61 22.634"><defs><style>.a{fill:#323a6b;}</style></defs><path class="a" d="M175.963,172.667,170,166.7a9.574,9.574,0,0,1-3.34,3.343l5.96,5.967a2.122,2.122,0,0,0,3,0l.343-.344A2.124,2.124,0,0,0,175.963,172.667Z" transform="translate(-153.972 -153.996)"/><path class="a" d="M13.614,2.312A7.888,7.888,0,1,0,8.04,15.786,7.893,7.893,0,0,0,13.614,2.312ZM11.2,8.676H8.825v2.371a.785.785,0,0,1-.785.785h0a.785.785,0,0,1-.785-.786V8.678H4.885a.785.785,0,0,1,0-1.57H7.255V4.737a.785.785,0,0,1,.785-.785h0a.785.785,0,0,1,.785.786V7.107h2.369a.785.785,0,0,1,0,1.57Z" transform="translate(-0.156)"/></svg>