<svg xmlns="http://www.w3.org/2000/svg" width="22.613" height="22.634" viewBox="0 0 22.613 22.634"><defs><style>.a{fill:#323a6b;}</style></defs><path class="a" d="M13.6,2.312a7.893,7.893,0,1,0,0,11.162A7.855,7.855,0,0,0,13.6,2.312Zm-2.42,6.365-6.311,0h0a.785.785,0,0,1,0-1.571l6.311,0h0a.785.785,0,0,1,0,1.571Z" transform="translate(-0.136)"/><path class="a" d="M175.968,172.667l-5.962-5.968a9.574,9.574,0,0,1-3.341,3.343l5.961,5.967a2.123,2.123,0,0,0,3,0l.343-.343A2.124,2.124,0,0,0,175.968,172.667Z" transform="translate(-153.974 -153.995)"/></svg>