<svg width="1286" height="909" xmlns="http://www.w3.org/2000/svg" xmlns:xlink="http://www.w3.org/1999/xlink">
 <defs>
  <style type="text/css">
   <![CDATA[
.g0{
fill: none;
stroke: #000000;
stroke-width: 1.527;
stroke-linecap: butt;
stroke-linejoin: miter;
}
.g1{
fill: none;
stroke: #000000;
stroke-width: 6.111;
stroke-linecap: butt;
stroke-linejoin: miter;
}
.g2{
fill: none;
stroke: #000000;
stroke-width: 0.763;
stroke-linecap: butt;
stroke-linejoin: miter;
}
]]>
  </style>
 </defs>
 <g>
  <title>background</title>
  <rect fill="none" id="canvas_background" height="402" width="582" y="-1" x="-1"/>
 </g>
 <g>
  <title>Layer 1</title>
  <image id="svg_1" xlink:href="ballot_leader_signature.jpeg" height="100" width="76.6" y="513" x="202"/>
  <path id="svg_2" class="g0" d="m79.7,278l821.7,0m-821.7,26.6l573.2,0m0,0l248.5,0m0,0l164.2,0m-985.9,53.1l573.2,0m0,0l248.5,0m0,0l164.2,0m-985.9,69l324.4,0m248.8,0l248.5,0m-821.7,65.3l324.4,0m0,0l248.8,0m0,0l248.5,0m-821.7,123l324.4,0m497.3,53.1l164.2,0"/>
  <path id="svg_3" class="g1" d="m79.7,694.1l1128.6,0"/>
  <path id="svg_4" class="g0" d="m79.7,777.2l324.4,0m248.8,0l248.5,0m-821.7,52.6l324.4,0m497.1,-26.6l306.7,0m-306.5,-0.2l0,26.8"/>
  <path id="svg_5" class="g2" d="m1207.9,803l0,26.8"/>
  <path id="svg_6" class="g0" d="m79.7,856.4l324.4,0m497.3,-26.6l0,26.8m-0.2,-0.2l306.7,0"/>
  <path id="svg_7" class="g2" d="m1207.9,829.8l0,26.8"/>
  <image id="svg_8" xlink:href="ballot_leader_knesset.png" height="87" width="249" y="20" x="503"/>
  <line stroke-linecap="null" stroke-linejoin="null" id="svg_13" y2="427" x2="654.5" y1="427" x1="401.5" stroke-opacity="null" stroke-width="1.5" stroke="#000000" fill="none"/>
 </g>
</svg>