<?xml version="1.0" encoding="UTF-8" standalone="no"?>
<!DOCTYPE svg PUBLIC "-//W3C//DTD SVG 1.1//EN"
"http://www.w3.org/Graphics/SVG/1.1/DTD/svg11.dtd">
<svg viewBox="0 0 1286 909" version="1.1" xmlns="http://www.w3.org/2000/svg" xmlns:xlink="http://www.w3.org/1999/xlink">
<defs>
<style type="text/css"><![CDATA[
.g0_1{
fill: none;
stroke: #000000;
stroke-width: 1.527;
stroke-linecap: butt;
stroke-linejoin: miter;
}
.g1_1{
fill: none;
stroke: #000000;
stroke-width: 6.111;
stroke-linecap: butt;
stroke-linejoin: miter;
}
.g2_1{
fill: none;
stroke: #000000;
stroke-width: 0.763;
stroke-linecap: butt;
stroke-linejoin: miter;
}
]]></style>
</defs>
<image preserveAspectRatio="none" x="202" y="547" width="37" height="71" xlink:href="ballot_leader_signature.png"/>
<path d="M79.7,281.5H901.4M79.7,308H652.9m0,0H901.4m0,0h164.2M79.7,361.2H652.9m0,0H901.4m0,0h164.2m-985.9,69H404.1m248.8,0H901.4M79.7,495.5H404.1m0,0H652.9m0,0H901.4M79.7,618.4H404.1m497.3,53.2h164.2" class="g0_1"/>
<path d="M79.7,697.6H1208.3" class="g1_1"/>
<path d="M79.7,780.7H404.1m248.8,0H901.4M79.7,833.3H404.1M901.2,806.7h306.7m-306.5,-.2v26.8" class="g0_1"/>
<path d="M1207.9,806.5v26.8" class="g2_1"/>
<path d="M79.7,859.8H404.1M901.4,833.3V860m-.2,-.2h306.7" class="g0_1"/>
<path d="M1207.9,833.3V860" class="g2_1"/>
<image preserveAspectRatio="none" x="503" y="20" width="249" height="87" xlink:href="ballot_leader_knesset.png"/>
</svg>