<?xml version="1.0" encoding="UTF-8" standalone="no"?>
<!DOCTYPE svg PUBLIC "-//W3C//DTD SVG 1.1//EN"
"http://www.w3.org/Graphics/SVG/1.1/DTD/svg11.dtd">
<svg viewBox="0 0 913 1287" version="1.1" xmlns="http://www.w3.org/2000/svg" xmlns:xlink="http://www.w3.org/1999/xlink">
<defs>
<style type="text/css"><![CDATA[
.g0{
fill: none;
stroke: #000000;
stroke-width: 1.527;
stroke-linecap: butt;
stroke-linejoin: miter;
}
]]></style>
</defs>
<image preserveAspectRatio="none" x="380" y="16" width="138" height="83" xlink:href="kneset.png"/>
<path d="M471.5,165H701.4m-594.7,1.1H336.5M732.2,253H873.3m-393.1,0H630.9M376.5,237.7v26h31.2v-26Zm31.2,0v26h31.2v-26Zm-93.6,0v26h31.2v-26Zm31.2,0v26h31.3v-26Zm-187.2,0v26h31.2v-26Zm124.8,0v26h31.2v-26Zm-62.4,0v26h31.2v-26Zm31.2,0v26h31.2v-26Zm-62.4,0v26h31.2v-26ZM356.5,394H873.3M338.9,508.2H443.1M226.9,337v26h31.2V337Zm31.2,0v26h31.2V337Zm-93.5,0v26h31.2V337Zm31.2,0v26H227V337ZM8.6,337v26H39.8V337Zm124.8,0v26h31.2V337ZM71,337v26h31.2V337Zm31.2,0v26h31.2V337Zm-62.4,0v26H71V337Z" class="g0"/>
</svg>